<svg xmlns="http://www.w3.org/2000/svg" width="698" height="465" viewBox="0 0 698 465">
<g>
<path d="M 524.45 292.39 C525.34,289.68 525.73,287.71 525.45,286.84 C524.93,285.22 520.63,284.25 516.73,284.89 C515.90,285.02 516.50,281.90 518.54,275.50 C520.02,270.88 520.84,267.05 521.52,261.72 L 522.00 257.94 L 515.43 265.47 C511.82,269.61 508.74,273.00 508.58,273.00 C508.43,273.00 508.49,271.12 508.72,268.82 C509.30,262.96 506.23,241.25 503.30,230.55 C501.96,225.62 500.82,220.31 500.77,218.75 C500.74,217.60 500.72,216.84 500.45,216.73 C499.92,216.52 498.44,218.75 494.08,225.29 C483.42,241.27 469.66,257.00 452.96,272.27 C442.54,281.80 433.04,289.36 434.55,286.92 C434.98,286.23 434.18,286.52 432.77,287.58 C431.36,288.64 430.46,289.95 430.76,290.50 C431.07,291.05 430.96,291.18 430.53,290.79 C430.09,290.39 428.93,290.50 427.94,291.03 C425.81,292.17 423.00,291.31 423.00,289.51 C423.00,288.80 421.42,285.93 419.50,283.14 C417.58,280.34 416.00,277.59 416.00,277.02 C416.00,276.46 415.50,276.00 414.89,276.00 C414.28,276.00 414.05,275.30 414.38,274.45 C415.11,272.55 414.11,273.09 408.00,277.90 C405.52,279.85 409.44,275.70 416.69,268.68 C423.95,261.67 430.79,254.48 431.90,252.71 C433.00,250.94 435.28,248.60 436.95,247.50 C438.62,246.40 440.00,245.05 440.00,244.49 C440.00,243.93 441.17,242.22 442.60,240.68 C444.03,239.14 450.15,231.27 456.21,223.19 C468.42,206.91 469.30,205.85 466.26,211.18 C464.03,215.07 464.21,218.48 466.69,219.44 C468.40,220.09 475.70,216.63 483.43,211.50 C486.33,209.58 489.15,208.00 489.70,208.00 C490.24,208.00 491.55,207.05 492.59,205.90 C494.12,204.21 495.32,203.89 498.71,204.27 C503.42,204.80 504.22,204.20 508.04,197.25 C509.32,194.91 510.65,193.00 511.00,193.00 C511.35,193.00 512.95,195.78 514.57,199.19 C516.18,202.59 518.85,207.66 520.51,210.44 C522.16,213.22 524.77,218.88 526.30,223.00 C529.93,232.75 531.42,235.56 532.84,235.25 C533.48,235.11 534.00,235.45 534.00,236.00 C534.00,236.55 534.45,237.00 535.00,237.00 C535.16,237.00 535.30,236.89 535.43,236.67 C535.35,237.59 535.27,238.56 535.17,239.60 C533.26,260.75 530.08,276.91 524.45,292.39 ZM 446.33 270.42 C446.99,272.14 451.00,272.63 451.00,271.00 C451.00,270.45 451.36,270.11 451.79,270.25 C452.23,270.39 454.96,268.43 457.86,265.90 C461.57,262.66 463.27,260.36 463.62,258.15 C463.90,256.42 463.75,255.00 463.31,255.00 C462.03,255.00 453.46,261.33 449.40,265.26 C447.03,267.57 445.94,269.40 446.33,270.42 ZM 475.20 303.91 C476.05,304.63 460.86,304.71 458.31,304.00 C455.43,303.20 455.67,301.00 458.63,301.00 C462.06,301.00 474.29,303.15 475.20,303.91 ZM 454.89 384.88 C466.99,375.92 478.74,364.98 488.83,353.30 C478.80,365.18 467.51,375.69 454.89,384.88 ZM 525.61 170.67 C520.35,155.03 513.03,140.18 503.86,126.65 C513.29,140.57 520.41,154.87 525.61,170.67 ZM 419.92 405.41 C425.77,402.63 432.65,399.03 438.77,395.49 C434.55,397.99 430.20,400.37 425.73,402.63 C423.96,403.52 421.95,404.48 419.92,405.41 ZM 535.85 225.50 C535.57,220.78 535.00,215.03 534.22,209.07 C534.37,210.23 534.53,211.40 534.67,212.58 C535.36,218.14 535.74,221.90 535.85,225.50 ZM 515.17 313.45 C516.27,311.29 517.33,309.15 518.31,307.08 C517.32,309.19 516.27,311.31 515.17,313.45 Z" fill="rgba(35,140,180,1)"/>
<path d="M 454.24 225.80 C459.04,219.33 463.98,212.35 467.01,207.63 C473.98,196.79 474.48,194.54 471.55,187.00 C469.46,181.63 468.96,176.92 470.44,176.48 C471.02,176.31 472.63,175.92 474.02,175.62 C477.05,174.97 478.82,173.33 485.99,164.57 C492.25,156.93 494.86,151.33 494.94,145.37 C494.99,141.78 495.33,141.17 497.47,140.76 C499.63,140.35 500.44,141.13 503.93,147.00 C506.13,150.69 509.58,155.69 511.61,158.11 C513.64,160.52 516.31,164.75 517.54,167.50 C518.77,170.25 520.91,173.72 522.30,175.21 C523.69,176.70 525.53,178.92 526.39,180.15 C528.12,182.62 528.83,182.51 528.53,180.19 C529.42,183.44 530.23,186.71 530.96,190.00 C535.13,209.08 537.53,237.00 535.00,237.00 C534.45,237.00 534.00,236.55 534.00,236.00 C534.00,235.45 533.48,235.11 532.84,235.25 C531.42,235.56 529.93,232.75 526.30,223.00 C524.77,218.88 522.16,213.22 520.51,210.44 C518.85,207.66 516.18,202.59 514.57,199.19 C512.95,195.78 511.35,193.00 511.00,193.00 C510.65,193.00 509.32,194.91 508.04,197.25 C504.22,204.20 503.42,204.80 498.71,204.27 C495.32,203.89 494.12,204.21 492.59,205.90 C491.55,207.05 490.24,208.00 489.70,208.00 C489.15,208.00 486.33,209.58 483.43,211.50 C475.70,216.63 468.40,220.09 466.69,219.44 C464.21,218.48 464.03,215.07 466.26,211.18 C469.30,205.85 468.42,206.91 456.21,223.19 C455.55,224.06 454.90,224.94 454.24,225.80 ZM 430.42 290.70 C421.40,297.25 412.24,302.94 403.28,307.50 C392.28,313.10 390.00,313.85 390.00,311.89 C390.00,309.93 383.71,301.00 382.33,301.00 C381.60,301.00 381.00,300.54 381.00,299.97 C381.00,299.38 379.63,299.60 377.75,300.50 C374.54,302.02 374.53,302.02 376.95,300.27 C378.30,299.30 383.86,295.12 389.32,291.00 C394.77,286.88 399.89,283.05 400.70,282.50 C406.58,278.51 429.45,256.61 432.02,252.50 C433.06,250.85 435.28,248.60 436.95,247.50 C435.28,248.60 433.00,250.94 431.90,252.71 C430.79,254.48 423.95,261.67 416.69,268.68 C409.44,275.70 405.52,279.85 408.00,277.90 C414.11,273.09 415.11,272.55 414.38,274.45 C414.05,275.30 414.28,276.00 414.89,276.00 C415.50,276.00 416.00,276.46 416.00,277.02 C416.00,277.59 417.58,280.34 419.50,283.14 C421.42,285.93 423.00,288.80 423.00,289.51 C423.00,291.31 425.81,292.17 427.94,291.03 C428.85,290.54 429.92,290.41 430.42,290.70 ZM 479.00 185.18 L 479.00 190.22 L 482.75 189.54 C488.49,188.49 489.63,186.93 487.91,182.42 C487.11,180.34 485.53,178.37 484.28,177.91 C480.87,176.65 479.00,179.22 479.00,185.18 ZM 400.80 264.80 C397.58,268.02 392.46,264.65 393.19,259.80 C393.99,254.41 402.00,255.30 402.00,260.78 C402.00,262.33 401.46,264.14 400.80,264.80 ZM 395.36 262.50 C395.68,263.33 396.57,264.00 397.35,264.00 C398.12,264.00 399.32,263.33 400.00,262.50 C400.99,261.30 400.99,260.70 400.00,259.50 C399.32,258.67 398.12,258.00 397.35,258.00 C395.64,258.00 394.57,260.44 395.36,262.50 ZM 435.76 286.72 C434.09,288.00 432.42,289.25 430.75,290.47 C430.49,289.90 431.39,288.61 432.77,287.58 C434.18,286.52 434.98,286.23 434.55,286.92 C434.11,287.62 434.60,287.49 435.76,286.72 ZM 490.28 230.79 C478.33,247.54 463.08,263.88 446.69,277.87 C448.68,276.14 450.80,274.25 452.96,272.27 C467.74,258.75 480.22,244.88 490.28,230.79 ZM 519.29 154.44 C514.74,144.59 509.20,134.53 503.86,126.65 C509.79,135.41 514.96,144.72 519.29,154.44 ZM 440.00 244.49 C440.00,243.93 441.03,242.36 442.29,240.99 C442.72,240.53 443.22,239.95 443.78,239.29 C443.25,239.93 442.85,240.40 442.60,240.68 C441.17,242.22 440.00,243.93 440.00,244.49 Z" fill="rgba(38,86,163,1)"/>
<path d="M 502.54 124.71 C498.43,118.75 494.27,113.60 490.35,109.75 C484.82,104.32 482.35,102.65 477.50,101.11 C466.34,97.55 460.92,96.77 455.00,97.85 C446.55,99.41 436.88,102.46 433.00,104.79 C429.10,107.14 425.78,107.14 425.44,104.79 C425.07,102.28 421.93,96.19 420.31,94.85 C418.12,93.03 412.40,93.32 410.14,95.37 C405.77,99.33 406.74,105.64 412.23,109.01 C414.48,110.39 416.40,110.83 418.37,110.40 C420.16,110.02 421.53,110.25 422.00,110.99 C423.07,112.74 420.33,121.08 418.19,122.58 C415.90,124.18 413.66,129.51 411.49,138.50 C410.56,142.35 409.30,147.52 408.69,150.00 C408.08,152.48 407.54,158.77 407.50,164.00 C407.46,169.23 406.85,175.75 406.15,178.50 C405.45,181.25 404.68,185.75 404.44,188.50 C403.19,202.71 402.73,205.62 401.30,208.44 L 399.75 211.50 L 405.27 206.50 L 403.97 209.00 C402.92,211.04 403.49,210.77 407.09,207.54 C409.51,205.36 413.68,201.20 416.35,198.29 C419.02,195.38 421.72,193.02 422.35,193.04 C422.98,193.06 422.15,194.17 420.50,195.52 C418.85,196.87 417.49,198.32 417.49,198.74 C417.46,199.99 399.38,218.00 398.14,218.00 C397.51,218.00 397.00,218.40 397.00,218.89 C397.00,219.38 395.88,220.07 394.50,220.41 C393.12,220.76 392.00,221.48 392.00,222.02 C392.00,222.56 391.36,223.00 390.58,223.00 C389.80,223.00 387.17,223.86 384.73,224.90 C382.01,226.07 379.77,226.48 378.93,225.95 C377.40,225.01 377.89,224.75 383.50,223.50 L 386.50 222.83 L 383.50 221.27 C381.85,220.42 380.08,219.00 379.57,218.13 C377.61,214.76 368.28,205.77 363.72,202.83 C359.37,200.03 358.26,199.77 351.31,199.90 C345.11,200.02 342.52,200.60 337.44,203.03 C334.01,204.67 329.88,207.52 328.25,209.36 C324.77,213.33 319.34,228.28 317.31,239.50 C316.72,242.77 304.50,255.43 302.89,254.43 C302.39,254.12 301.72,254.58 301.39,255.44 C300.70,257.22 298.00,257.57 298.00,255.88 C298.00,255.10 297.54,255.14 296.50,256.00 C295.58,256.76 295.00,256.84 295.00,256.20 C295.00,255.62 293.71,253.86 292.14,252.29 C288.94,249.09 286.64,244.97 285.57,240.54 C285.18,238.92 283.31,235.88 281.43,233.79 C279.54,231.70 278.00,229.54 278.00,228.99 C278.00,227.61 268.38,214.72 262.39,208.07 C259.04,204.36 255.55,201.76 251.34,199.85 C246.77,197.78 244.44,195.97 242.34,192.85 C240.78,190.54 238.04,187.23 236.25,185.50 C233.17,182.52 232.05,180.00 233.80,180.00 C234.24,180.00 235.14,177.36 235.81,174.14 C236.48,170.92 238.36,165.86 239.99,162.89 C241.63,159.93 242.97,156.66 242.98,155.64 C242.99,154.62 244.12,152.45 245.50,150.82 C246.88,149.18 248.00,147.09 248.00,146.16 C248.00,145.24 248.89,143.92 249.99,143.24 C251.08,142.56 252.65,140.39 253.47,138.42 C254.29,136.45 257.28,132.75 260.11,130.21 C262.94,127.67 264.72,125.41 264.07,125.19 C263.25,124.92 263.45,124.14 264.69,122.71 L 266.50 120.64 L 263.78 122.57 C262.28,123.63 261.23,125.00 261.44,125.62 C261.97,127.13 252.45,136.40 251.18,135.61 C249.06,134.30 221.27,168.76 208.52,188.52 C203.30,196.60 193.78,213.42 188.15,224.50 C186.47,227.80 185.07,230.15 185.05,229.73 C184.97,228.52 193.31,212.26 199.59,201.39 C211.62,180.54 225.91,160.78 242.57,141.95 C268.36,112.80 304.28,86.28 335.15,73.59 C343.57,70.13 361.78,66.32 364.65,67.42 C365.41,67.71 366.00,69.39 366.00,71.26 C366.00,74.09 366.76,75.14 371.17,78.43 C378.08,83.59 382.85,84.61 389.26,82.31 C395.45,80.08 401.50,73.82 400.51,70.65 C400.15,69.47 399.46,66.66 398.98,64.41 C397.97,59.60 394.98,53.00 393.81,53.00 C393.37,53.00 393.00,52.14 393.00,51.09 C393.00,49.64 393.53,49.30 395.25,49.68 C397.07,50.08 397.21,49.97 396.00,49.08 C394.06,47.68 385.40,45.08 376.24,43.08 C380.50,43.85 384.13,44.45 385.24,44.55 C394.57,45.40 425.89,57.97 439.93,66.50 C456.98,76.85 469.95,86.94 482.71,99.78 C488.87,105.98 494.50,112.12 495.21,113.43 C495.84,114.59 499.00,119.44 502.54,124.71 ZM 375.83 301.09 C374.57,301.33 373.12,302.17 368.50,305.00 C345.97,318.78 326.33,329.16 317.50,331.95 C315.30,332.65 311.80,334.36 309.71,335.77 C306.20,338.14 304.57,338.41 287.21,339.55 C276.92,340.22 267.38,341.22 266.00,341.76 C264.62,342.31 261.02,343.09 258.00,343.51 C253.90,344.08 253.01,344.47 254.50,345.03 C255.96,345.59 255.16,345.90 251.50,346.22 C246.96,346.60 247.12,346.66 253.31,346.82 C257.55,346.93 259.89,347.38 259.50,348.00 C259.13,348.59 252.82,349.00 243.94,349.00 C234.65,349.00 229.00,348.62 229.00,348.00 C229.00,347.45 230.24,346.93 231.75,346.85 L 234.50 346.70 L 231.75 346.28 C230.24,346.05 229.00,345.48 229.00,345.00 C229.00,344.52 227.76,343.99 226.25,343.82 C224.74,343.64 223.60,342.98 223.72,342.35 C223.83,341.72 222.32,340.91 220.34,340.54 C215.86,339.70 213.00,337.96 213.00,336.07 C213.00,335.28 212.09,333.66 210.98,332.48 C209.19,330.58 209.11,329.99 210.23,327.41 C213.45,320.06 214.77,319.03 220.85,319.13 C225.06,319.19 227.83,318.55 231.75,316.61 C234.63,315.17 237.40,314.00 237.91,314.00 C238.42,314.00 238.98,313.66 239.17,313.25 C239.74,311.97 251.32,304.42 254.93,302.98 C256.82,302.23 260.19,300.23 262.43,298.54 C268.49,293.99 271.21,292.39 274.16,291.66 C277.49,290.84 277.33,287.87 273.91,286.95 C270.67,286.08 262.10,281.55 259.00,279.08 C256.58,277.14 256.57,277.10 258.75,277.66 C259.99,277.97 261.00,278.62 261.00,279.10 C261.00,279.58 263.36,281.18 266.25,282.67 C270.64,284.93 272.83,285.38 279.63,285.44 C287.76,285.50 287.77,285.50 295.13,280.55 C299.46,277.65 309.65,268.45 319.81,258.29 C334.88,243.22 337.30,241.16 338.56,242.42 C339.35,243.21 342.48,244.17 345.52,244.55 C350.23,245.13 351.77,244.87 356.01,242.77 C359.10,241.25 360.51,240.88 359.74,241.81 C356.38,245.87 346.77,247.18 340.28,244.47 L 336.63 242.95 L 332.31 247.18 C327.49,251.92 327.25,252.50 329.75,253.46 C332.68,254.59 355.96,254.09 358.32,252.85 C367.56,247.98 378.33,239.56 377.15,238.11 C376.97,237.90 377.43,237.34 378.16,236.88 C379.00,236.35 377.62,236.02 374.50,236.00 C371.75,235.99 368.42,235.68 367.09,235.33 C365.66,234.95 364.93,235.07 365.28,235.64 C365.60,236.17 364.98,237.16 363.89,237.84 C361.95,239.05 361.94,239.01 363.63,236.45 C365.23,234.00 365.71,233.86 370.50,234.46 C380.99,235.77 397.87,229.93 407.37,221.72 C418.00,212.53 424.86,205.72 430.79,198.50 C439.28,188.16 441.14,186.30 436.90,192.41 C435.03,195.10 429.96,201.33 425.64,206.25 C421.23,211.27 418.82,214.65 420.14,213.96 L 422.50 212.73 L 420.06 215.38 L 417.63 218.02 L 420.72 217.41 C423.32,216.89 423.79,217.08 423.66,218.64 C423.55,219.87 424.27,220.61 425.75,220.82 C426.99,221.00 428.00,221.78 428.00,222.57 C428.00,223.36 428.62,224.00 429.38,224.00 C431.67,224.00 431.92,227.73 429.90,231.69 C428.86,233.74 428.00,235.84 428.00,236.35 C428.00,236.86 426.36,239.43 424.36,242.06 C421.32,246.05 420.37,246.70 418.61,246.02 C417.13,245.46 415.90,245.74 414.50,246.98 C412.74,248.54 411.70,248.63 405.91,247.74 C397.47,246.43 392.82,247.34 388.48,251.15 C385.33,253.91 385.00,254.71 385.00,259.48 C385.00,265.56 388.83,275.30 391.85,276.92 C394.31,278.23 399.19,278.62 400.80,277.63 C401.48,277.21 403.19,276.65 404.60,276.40 C406.49,276.05 406.96,276.27 406.39,277.22 C405.92,277.99 406.00,278.12 406.71,277.59 C404.15,279.85 402.01,281.62 400.70,282.50 C399.89,283.05 394.77,286.88 389.32,291.00 C383.86,295.12 378.30,299.30 376.95,300.27 C376.48,300.61 376.11,300.88 375.83,301.09 ZM 286.32 275.25 C282.63,277.31 279.06,277.49 276.66,275.74 C275.20,274.67 275.65,274.54 279.55,274.85 C283.53,275.16 284.88,274.72 289.34,271.65 C294.31,268.22 307.06,255.91 304.00,257.50 C303.17,257.92 306.08,254.62 310.45,250.17 C314.82,245.71 318.62,242.28 318.89,242.55 C319.16,242.82 317.16,245.37 314.44,248.22 C311.72,251.06 314.16,249.03 319.85,243.69 C325.54,238.36 330.71,234.02 331.35,234.05 C332.75,234.11 298.03,268.00 296.55,268.00 C295.97,268.01 294.14,269.24 292.48,270.75 C290.82,272.26 288.05,274.29 286.32,275.25 ZM 332.54 288.04 C336.25,292.14 345.00,289.59 345.00,284.40 C345.00,281.94 341.64,279.00 338.82,279.00 C332.97,279.00 329.22,284.38 332.54,288.04 ZM 289.50 328.20 C294.93,329.38 299.00,323.86 295.53,320.03 C293.49,317.78 289.06,317.34 287.20,319.20 C285.87,320.53 285.62,324.86 286.77,326.63 C287.17,327.26 288.40,327.96 289.50,328.20 ZM 377.33 168.38 C379.60,171.85 383.62,171.92 385.17,168.53 C387.25,163.96 381.97,161.11 377.50,164.38 C375.70,165.69 375.69,165.88 377.33,168.38 ZM 273.50 347.00 C273.16,347.55 271.78,348.00 270.44,348.00 C269.10,348.00 268.00,347.55 268.00,347.00 C268.00,346.45 269.38,346.00 271.06,346.00 C272.84,346.00 273.86,346.42 273.50,347.00 ZM 407.95 276.50 C408.45,275.90 408.68,275.29 408.48,274.96 C408.20,274.52 409.41,273.13 411.17,271.88 C412.96,270.61 414.00,270.24 413.54,271.05 C413.38,271.35 413.47,271.38 413.76,271.18 C411.74,273.07 409.76,274.88 407.95,276.50 ZM 220.00 347.00 C220.00,347.55 218.88,348.00 217.50,348.00 C216.12,348.00 215.00,347.55 215.00,347.00 C215.00,346.45 216.12,346.00 217.50,346.00 C218.88,346.00 220.00,346.45 220.00,347.00 ZM 211.50 346.00 C211.85,346.57 211.01,347.00 209.56,347.00 C208.15,347.00 207.00,346.55 207.00,346.00 C207.00,345.45 207.87,345.00 208.94,345.00 C210.01,345.00 211.16,345.45 211.50,346.00 ZM 282.00 346.00 C282.00,346.55 281.10,347.00 280.00,347.00 C278.90,347.00 278.00,346.55 278.00,346.00 C278.00,345.45 278.90,345.00 280.00,345.00 C281.10,345.00 282.00,345.45 282.00,346.00 ZM 295.50 344.00 C295.16,344.55 294.23,345.00 293.44,345.00 C292.65,345.00 292.00,344.55 292.00,344.00 C292.00,343.45 292.93,343.00 294.06,343.00 C295.19,343.00 295.84,343.45 295.50,344.00 ZM 289.50 345.00 C289.16,345.55 288.23,346.00 287.44,346.00 C286.65,346.00 286.00,345.55 286.00,345.00 C286.00,344.45 286.93,344.00 288.06,344.00 C289.19,344.00 289.84,344.45 289.50,345.00 ZM 302.00 343.00 C302.00,343.55 301.33,344.00 300.50,344.00 C299.67,344.00 299.00,343.55 299.00,343.00 C299.00,342.45 299.67,342.00 300.50,342.00 C301.33,342.00 302.00,342.45 302.00,343.00 ZM 314.67 38.88 C280.56,41.69 247.90,53.30 217.51,73.52 C248.06,53.19 280.55,41.62 314.67,38.88 ZM 251.00 134.62 C251.00,135.45 251.82,134.92 253.13,133.25 C254.37,131.66 254.34,131.63 252.75,132.87 C251.79,133.63 251.00,134.41 251.00,134.62 ZM 377.74 300.50 C377.76,300.79 377.50,301.00 377.06,301.00 C376.93,301.00 376.80,301.00 376.68,301.01 C376.98,300.86 377.33,300.69 377.74,300.50 ZM 427.25 257.97 C429.59,255.48 431.45,253.38 432.00,252.50 C433.01,250.91 435.12,248.76 436.77,247.62 C435.12,248.76 433.02,250.91 432.02,252.50 C431.41,253.48 429.65,255.46 427.25,257.97 ZM 382.33 301.00 C381.60,301.00 381.00,300.65 381.00,300.21 C381.00,299.99 380.77,299.79 380.39,299.64 C380.78,299.63 381.00,299.74 381.00,299.97 C381.00,300.54 381.60,301.00 382.33,301.00 ZM 508.42 133.82 C507.16,131.74 505.89,129.72 504.60,127.76 C505.87,129.68 507.15,131.71 508.42,133.82 Z" fill="rgba(41,10,96,1)"/>
<path d="M 520.42 284.74 C518.55,284.65 516.50,284.94 514.91,285.67 C513.49,286.34 511.18,288.37 509.77,290.19 C502.76,299.25 498.06,302.58 483.90,308.54 C480.55,309.95 476.85,311.99 475.69,313.07 C474.54,314.15 473.12,314.86 472.55,314.65 C471.97,314.45 469.25,315.89 466.50,317.85 C462.69,320.58 463.88,319.11 471.50,311.67 C477.00,306.29 480.60,302.31 479.50,302.81 C478.40,303.32 476.87,303.51 476.11,303.24 C475.35,302.96 474.97,303.14 475.27,303.62 C475.32,303.70 475.26,303.78 475.11,303.85 C473.69,303.04 461.98,301.00 458.63,301.00 C455.67,301.00 455.43,303.20 458.31,304.00 C458.50,304.05 458.75,304.10 459.06,304.14 C456.06,303.99 456.04,303.74 456.44,303.09 C457.08,302.06 445.42,300.09 439.72,300.28 C436.90,300.37 435.30,299.75 433.40,297.85 L 430.85 295.30 L 437.71 290.21 C441.49,287.41 445.46,284.08 446.54,282.81 C448.49,280.51 448.49,280.51 446.50,282.10 C440.84,286.62 442.45,284.27 450.00,277.00 C455.50,271.69 456.62,270.34 453.16,273.15 C432.25,290.17 418.42,299.73 403.88,307.20 C436.76,290.30 472.15,258.18 494.08,225.29 C498.44,218.75 499.92,216.52 500.45,216.73 C500.72,216.84 500.74,217.60 500.77,218.75 C500.82,220.31 501.96,225.62 503.30,230.55 C506.23,241.25 509.30,262.96 508.72,268.82 C508.49,271.12 508.43,273.00 508.58,273.00 C508.74,273.00 511.82,269.61 515.43,265.47 L 522.00 257.94 L 521.52 261.72 C520.84,267.05 520.02,270.88 518.54,275.50 C516.50,281.90 515.90,285.02 516.73,284.89 C517.96,284.69 519.24,284.65 520.42,284.74 ZM 446.33 270.42 C445.94,269.40 447.03,267.57 449.40,265.26 C453.46,261.33 462.03,255.00 463.31,255.00 C463.75,255.00 463.90,256.42 463.62,258.15 C463.27,260.36 461.57,262.66 457.86,265.90 C454.96,268.43 452.23,270.39 451.79,270.25 C451.36,270.11 451.00,270.45 451.00,271.00 C451.00,272.63 446.99,272.14 446.33,270.42 ZM 416.96 102.54 C414.80,105.15 412.00,104.18 412.00,100.83 C412.00,99.56 412.74,99.00 414.44,99.00 C417.44,99.00 418.58,100.60 416.96,102.54 ZM 490.34 294.43 C490.67,295.29 491.42,296.00 492.00,296.00 C493.62,296.00 494.41,293.01 493.13,291.73 C491.62,290.22 489.50,292.26 490.34,294.43 ZM 525.46 286.87 C525.39,286.66 525.27,286.48 525.12,286.30 C525.28,286.47 525.39,286.65 525.45,286.84 C525.45,286.85 525.45,286.86 525.46,286.87 Z" fill="rgba(50,173,207,1)"/>
<path d="M 422.51 193.08 C422.47,193.05 422.42,193.04 422.35,193.04 C421.72,193.02 419.02,195.38 416.35,198.29 C413.68,201.20 409.51,205.36 407.09,207.54 C403.49,210.77 402.92,211.04 403.97,209.00 L 405.27 206.50 L 399.75 211.50 L 401.30 208.44 C402.73,205.62 403.19,202.71 404.44,188.50 C404.68,185.75 405.45,181.25 406.15,178.50 C406.85,175.75 407.46,169.23 407.50,164.00 C407.54,158.77 408.08,152.48 408.69,150.00 C409.30,147.52 410.56,142.35 411.49,138.50 C413.66,129.51 415.90,124.18 418.19,122.58 C420.33,121.08 423.07,112.74 422.00,110.99 C421.53,110.25 420.16,110.02 418.37,110.40 C416.40,110.83 414.48,110.39 412.23,109.01 C406.74,105.64 405.77,99.33 410.14,95.37 C412.40,93.32 418.12,93.03 420.31,94.85 C421.93,96.19 425.07,102.28 425.44,104.79 C425.78,107.14 429.10,107.14 433.00,104.79 C436.88,102.46 446.55,99.41 455.00,97.85 C460.92,96.77 466.34,97.55 477.50,101.11 C482.35,102.65 484.82,104.32 490.35,109.75 C503.12,122.28 518.52,148.79 526.08,171.24 C529.31,180.84 529.44,184.50 526.39,180.15 C525.53,178.92 523.69,176.70 522.30,175.21 C520.91,173.72 518.77,170.25 517.54,167.50 C516.31,164.75 513.64,160.52 511.61,158.11 C509.58,155.69 506.13,150.69 503.93,147.00 C501.17,142.36 500.09,140.90 498.69,140.69 C499.98,139.97 499.25,137.76 496.39,132.18 C493.63,126.82 491.09,123.71 485.66,119.05 C477.71,112.23 472.10,109.99 463.07,110.02 C456.38,110.05 451.80,112.02 443.00,118.65 C437.16,123.05 436.17,124.34 433.10,131.48 C430.17,138.33 429.69,140.60 429.60,147.96 C429.49,157.16 431.67,171.06 433.39,172.20 C433.98,172.58 435.18,172.25 436.06,171.45 C436.94,170.65 438.07,170.01 438.58,170.02 C439.09,170.02 439.05,170.36 438.50,170.77 C437.95,171.17 436.53,173.27 435.35,175.43 C433.11,179.50 428.13,186.20 422.51,193.08 ZM 469.75 180.59 C470.02,182.39 470.63,184.63 471.55,187.00 C474.48,194.54 473.98,196.79 467.01,207.63 C460.91,217.12 447.05,235.82 442.29,240.99 C441.03,242.36 440.00,243.93 440.00,244.49 C440.00,245.05 438.62,246.40 436.95,247.50 C435.28,248.60 433.05,250.85 432.00,252.50 C430.05,255.59 412.08,273.64 413.54,271.05 C414.00,270.24 412.96,270.61 411.17,271.88 C409.41,273.13 408.20,274.52 408.48,274.96 C408.75,275.41 408.22,276.39 407.30,277.14 C406.06,278.14 405.82,278.16 406.39,277.22 C406.96,276.27 406.49,276.05 404.60,276.40 C403.19,276.65 401.48,277.21 400.80,277.63 C399.19,278.62 394.31,278.23 391.85,276.92 C388.83,275.30 385.00,265.56 385.00,259.48 C385.00,254.71 385.33,253.91 388.48,251.15 C392.82,247.34 397.47,246.43 405.91,247.74 C411.70,248.63 412.74,248.54 414.50,246.98 C415.90,245.74 417.13,245.46 418.61,246.02 C420.37,246.70 421.32,246.05 424.36,242.06 C426.36,239.43 428.00,236.86 428.00,236.35 C428.00,235.84 428.86,233.74 429.90,231.69 C431.92,227.73 431.67,224.00 429.38,224.00 C428.62,224.00 428.00,223.36 428.00,222.57 C428.00,221.78 426.99,221.00 425.75,220.82 C424.27,220.61 423.55,219.87 423.66,218.64 C423.79,217.08 423.32,216.89 420.72,217.41 L 417.63 218.02 L 420.06 215.38 L 422.50 212.73 L 420.14 213.96 C418.82,214.65 421.23,211.27 425.64,206.25 C429.96,201.33 435.03,195.10 436.90,192.41 C441.14,186.30 439.28,188.16 430.79,198.50 C427.88,202.04 424.76,205.47 421.07,209.14 C427.81,201.99 436.69,191.10 443.22,181.78 C451.53,169.92 452.63,168.62 449.76,174.06 C447.09,179.11 447.79,181.00 452.33,181.00 C456.30,181.00 467.27,184.90 469.69,187.18 L 471.95 189.30 L 470.91 185.90 C470.32,183.94 469.92,182.11 469.75,180.59 ZM 273.50 347.00 C273.86,346.42 272.84,346.00 271.06,346.00 C269.38,346.00 268.00,346.45 268.00,347.00 C268.00,347.31 268.34,347.58 268.88,347.77 C268.14,347.83 267.39,347.89 266.65,347.95 C263.43,348.21 260.05,348.42 256.70,348.58 C258.37,348.42 259.36,348.23 259.50,348.00 C259.89,347.38 257.55,346.93 253.31,346.82 C247.12,346.66 246.96,346.60 251.50,346.22 C255.16,345.90 255.96,345.59 254.50,345.03 C253.01,344.47 253.90,344.08 258.00,343.51 C261.02,343.09 264.62,342.31 266.00,341.76 C267.38,341.22 276.92,340.22 287.21,339.55 C304.57,338.41 306.20,338.14 309.71,335.77 C311.80,334.36 315.30,332.65 317.50,331.95 C326.33,329.16 345.97,318.78 368.50,305.00 C374.59,301.27 375.17,301.00 377.06,301.00 C377.64,301.00 377.90,300.65 377.63,300.21 C377.37,299.78 378.01,299.43 379.07,299.43 C380.13,299.43 381.00,299.78 381.00,300.21 C381.00,300.65 381.60,301.00 382.33,301.00 C383.71,301.00 390.00,309.93 390.00,311.89 C390.00,313.51 391.55,313.28 398.23,310.03 C394.18,312.12 391.20,313.74 391.00,313.99 C390.06,315.11 382.89,319.00 381.69,319.03 C381.04,319.05 378.25,320.17 375.50,321.52 C372.75,322.87 369.49,323.99 368.25,323.99 C367.01,324.00 366.00,324.45 366.00,325.00 C366.00,325.55 364.88,326.00 363.50,326.00 C362.12,326.00 361.00,326.45 361.00,327.00 C361.00,327.55 360.04,328.00 358.87,328.00 C357.08,328.00 346.19,331.47 341.00,333.70 C340.17,334.06 337.25,334.88 334.50,335.53 C331.75,336.19 323.42,338.17 316.00,339.94 C311.21,341.09 306.56,342.11 302.00,343.01 L 302.00 343.00 C302.00,342.45 301.33,342.00 300.50,342.00 C299.67,342.00 299.00,342.45 299.00,343.00 C299.00,343.20 299.09,343.39 299.25,343.55 C297.92,343.80 296.59,344.04 295.27,344.28 C295.36,344.19 295.44,344.10 295.50,344.00 C295.84,343.45 295.19,343.00 294.06,343.00 C292.93,343.00 292.00,343.45 292.00,344.00 C292.00,344.30 292.19,344.57 292.50,344.76 C291.42,344.94 290.34,345.11 289.27,345.28 C289.36,345.19 289.44,345.10 289.50,345.00 C289.84,344.45 289.19,344.00 288.06,344.00 C286.93,344.00 286.00,344.45 286.00,345.00 C286.00,345.28 286.17,345.53 286.43,345.71 C284.91,345.94 283.39,346.15 281.88,346.35 C281.96,346.24 282.00,346.12 282.00,346.00 C282.00,345.45 281.10,345.00 280.00,345.00 C278.90,345.00 278.00,345.45 278.00,346.00 C278.00,346.30 278.26,346.57 278.68,346.75 C276.82,346.97 274.96,347.18 273.10,347.37 C273.28,347.25 273.42,347.13 273.50,347.00 ZM 326.50 423.90 C322.65,423.40 318.07,423.24 316.33,423.53 C314.58,423.82 312.86,423.59 312.50,423.00 C312.11,422.37 310.45,422.20 308.41,422.58 C306.52,422.94 304.42,422.78 303.74,422.24 C303.06,421.70 300.25,421.01 297.50,420.70 C291.34,420.02 288.71,419.49 278.50,416.73 C279.23,416.85 279.67,416.81 280.05,416.63 C280.47,416.43 280.81,416.05 281.36,415.50 C283.02,413.84 290.27,413.53 296.02,414.87 C299.82,415.75 332.81,414.64 347.50,413.13 C352.45,412.62 362.35,411.70 369.50,411.07 C376.65,410.44 383.85,409.51 385.50,409.00 C387.15,408.49 392.10,407.62 396.50,407.07 C403.65,406.18 404.77,406.27 407.06,407.92 C409.56,409.73 409.73,409.72 415.06,407.54 C416.11,407.11 417.17,406.66 418.23,406.20 C413.38,408.45 409.43,410.03 407.50,410.40 C406.95,410.51 405.49,411.15 404.25,411.83 C403.01,412.51 402.00,412.77 402.00,412.41 C402.00,412.05 401.33,412.32 400.50,413.00 C399.67,413.68 399.00,413.95 399.00,413.60 C399.00,413.24 397.95,413.64 396.67,414.48 C395.39,415.32 394.05,415.72 393.69,415.36 C393.34,415.01 392.44,415.22 391.70,415.84 C388.51,418.49 364.12,423.13 351.50,423.49 C348.20,423.59 342.80,423.92 339.50,424.23 C336.20,424.55 330.35,424.40 326.50,423.90 ZM 333.67 205.13 C334.92,204.34 336.22,203.61 337.44,203.03 C342.52,200.60 345.11,200.02 351.31,199.90 C358.26,199.77 359.37,200.03 363.72,202.83 C368.28,205.77 377.61,214.76 379.57,218.13 C380.08,219.00 381.85,220.42 383.50,221.27 L 386.50 222.83 L 383.50 223.50 C377.89,224.75 377.40,225.01 378.93,225.95 C379.08,226.05 379.29,226.12 379.54,226.15 C376.93,226.55 375.00,226.47 375.00,225.59 C375.00,224.92 374.16,223.48 373.14,222.38 C370.87,219.95 368.50,215.78 368.79,214.75 C368.90,214.34 368.62,214.00 368.16,214.00 C367.70,214.00 366.81,212.88 366.18,211.50 C365.56,210.12 364.44,209.00 363.71,209.00 C362.98,209.00 361.48,208.21 360.39,207.25 C355.89,203.30 354.20,202.91 344.23,203.52 C338.36,203.87 335.72,204.20 333.67,205.13 ZM 363.66 236.40 C363.65,236.41 363.64,236.43 363.63,236.45 C361.94,239.01 361.95,239.05 363.89,237.84 C364.98,237.16 365.60,236.17 365.28,235.64 C364.93,235.07 365.66,234.95 367.09,235.33 C368.42,235.68 371.75,235.99 374.50,236.00 C377.62,236.02 379.00,236.35 378.16,236.88 C377.43,237.34 376.97,237.90 377.15,238.11 C378.33,239.56 367.56,247.98 358.32,252.85 C355.96,254.09 332.68,254.59 329.75,253.46 C329.04,253.19 328.55,252.94 328.33,252.63 C328.60,252.61 329.03,252.39 329.50,252.00 C330.33,251.32 331.00,251.16 331.00,251.66 C331.00,252.16 331.90,252.57 333.00,252.57 C334.10,252.57 335.00,252.26 335.00,251.88 C335.00,251.50 336.76,251.43 338.91,251.72 C342.97,252.26 352.19,250.50 355.25,248.60 C356.21,248.01 357.00,246.93 357.00,246.20 C357.00,245.48 357.40,245.13 357.89,245.43 C358.38,245.74 359.51,244.87 360.40,243.52 L 362.01 241.05 L 358.77 242.77 C359.13,242.47 359.46,242.15 359.74,241.81 C360.37,241.06 359.56,241.15 357.58,242.03 C359.33,240.95 360.96,239.53 362.46,237.78 C362.91,237.25 363.30,236.79 363.66,236.40 ZM 332.54 288.04 C329.22,284.38 332.97,279.00 338.82,279.00 C341.64,279.00 345.00,281.94 345.00,284.40 C345.00,289.59 336.25,292.14 332.54,288.04 ZM 400.80 264.80 C401.46,264.14 402.00,262.33 402.00,260.78 C402.00,255.30 393.99,254.41 393.19,259.80 C392.46,264.65 397.58,268.02 400.80,264.80 ZM 416.96 102.54 C418.58,100.60 417.44,99.00 414.44,99.00 C412.74,99.00 412.00,99.56 412.00,100.83 C412.00,104.18 414.80,105.15 416.96,102.54 ZM 395.71 220.00 C396.48,219.65 397.00,219.23 397.00,218.89 C397.00,218.40 397.51,218.00 398.14,218.00 C399.38,218.00 417.46,199.99 417.49,198.74 C417.49,198.32 418.85,196.88 420.49,195.53 C411.03,206.89 400.52,218.00 398.37,218.00 C397.62,218.00 397.00,218.45 397.00,219.00 C397.00,219.52 396.43,219.95 395.71,220.00 ZM 223.56 391.85 C202.35,377.98 183.32,360.01 168.67,339.50 C183.12,359.74 202.38,377.89 223.56,391.85 ZM 442.00 393.58 C454.23,385.89 465.96,376.65 476.52,366.39 C465.70,376.96 453.80,386.40 442.00,393.58 ZM 317.01 240.35 C317.00,240.44 317.00,240.52 317.00,240.59 C317.00,241.70 313.56,245.61 310.07,248.99 C313.06,245.94 316.04,242.37 317.01,240.35 ZM 318.69 233.25 C319.82,228.79 321.28,224.18 322.81,220.16 C321.72,223.41 320.40,227.63 318.69,233.25 ZM 353.78 243.80 C351.04,244.94 349.30,245.02 345.52,244.55 C345.48,244.54 345.43,244.53 345.39,244.53 C348.40,244.89 351.20,244.65 353.78,243.80 ZM 384.25 225.10 C384.41,225.04 384.57,224.97 384.73,224.90 C386.58,224.11 388.54,223.42 389.72,223.14 C388.12,223.87 386.18,224.56 384.25,225.10 ZM 410.71 218.80 C409.64,219.74 408.53,220.72 407.37,221.72 C404.40,224.29 400.70,226.63 396.70,228.59 C396.74,228.57 396.78,228.54 396.83,228.52 C402.28,225.66 404.19,224.45 410.71,218.80 ZM 340.28 244.47 C343.34,245.75 347.09,246.13 350.55,245.76 C347.08,246.26 343.54,245.83 340.28,244.47 ZM 240.07 348.98 C233.53,348.94 229.00,348.62 229.00,348.00 C229.00,348.53 233.10,348.88 240.07,348.98 ZM 496.45 141.03 C495.21,141.50 494.98,142.45 494.94,145.37 C494.90,148.67 494.08,151.87 492.28,155.37 C494.08,151.85 494.90,148.63 494.94,145.25 C494.99,142.12 495.26,141.20 496.45,141.03 ZM 328.30 251.70 C328.67,250.84 329.94,249.52 332.31,247.18 C330.50,248.96 328.94,250.74 328.30,251.70 ZM 392.02 221.88 C392.14,221.52 392.69,221.10 393.44,220.77 C393.21,220.92 393.00,221.08 392.82,221.25 C392.60,221.46 392.33,221.67 392.02,221.88 ZM 372.16 234.60 C371.59,234.57 371.04,234.52 370.50,234.46 C369.13,234.29 368.12,234.18 367.33,234.16 C368.16,234.12 369.20,234.25 370.70,234.46 C371.17,234.52 371.66,234.57 372.16,234.60 Z" fill="rgba(42,26,124,1)"/>
<path d="M 511.68 320.08 L 509.04 320.38 C507.44,320.57 504.42,322.08 502.32,323.73 C495.46,329.14 473.97,339.71 465.50,341.85 C454.10,344.72 445.35,346.00 437.09,346.00 C432.60,346.00 428.79,346.57 426.95,347.53 C421.78,350.20 423.77,348.22 431.47,343.02 C439.75,337.43 444.38,332.98 443.17,331.77 C442.73,331.33 438.12,329.89 432.93,328.57 C427.75,327.25 419.94,325.23 415.59,324.09 C411.24,322.94 406.29,322.00 404.59,321.99 C400.04,321.99 393.99,320.09 394.26,318.75 C394.39,318.11 399.00,315.06 404.50,311.96 C413.29,307.01 422.94,300.88 430.88,295.34 L 433.40 297.85 C435.30,299.75 436.90,300.37 439.72,300.28 C445.42,300.09 457.08,302.06 456.44,303.09 C455.81,304.11 456.21,304.15 467.65,304.36 C472.14,304.44 475.56,304.10 475.27,303.62 C474.97,303.14 475.35,302.96 476.11,303.24 C476.87,303.51 478.40,303.32 479.50,302.81 C480.60,302.31 477.00,306.29 471.50,311.67 C463.88,319.11 462.69,320.58 466.50,317.85 C469.25,315.89 471.97,314.45 472.55,314.65 C473.12,314.86 474.54,314.15 475.69,313.07 C476.85,311.99 480.55,309.95 483.90,308.54 C498.06,302.58 502.76,299.25 509.77,290.19 C511.18,288.37 513.49,286.34 514.91,285.67 C518.59,283.96 524.76,284.67 525.47,286.90 C526.40,289.82 519.61,305.49 511.68,320.08 ZM 479.00 185.18 C479.00,179.22 480.87,176.65 484.28,177.91 C485.53,178.37 487.11,180.34 487.91,182.42 C489.63,186.93 488.49,188.49 482.75,189.54 L 479.00 190.22 ZM 481.99 185.49 C483.35,187.13 485.59,186.51 486.46,184.26 C487.17,182.38 486.25,181.29 483.54,180.83 C481.22,180.44 480.24,183.38 481.99,185.49 ZM 490.84 350.98 C495.14,345.82 499.14,340.48 502.78,335.03 C502.64,335.25 502.49,335.48 502.34,335.70 C498.83,340.91 494.98,346.02 490.84,350.98 ZM 447.96 281.09 C448.00,281.00 447.98,280.98 447.90,281.02 C448.01,280.95 448.03,280.97 447.96,281.09 Z" fill="rgba(60,116,214,1)"/>
<path d="M 473.00 369.41 C473.00,369.54 473.11,369.56 473.32,369.47 C471.07,371.57 468.77,373.62 466.43,375.63 C467.94,374.23 468.71,373.34 468.55,373.09 C468.28,372.65 469.85,370.54 472.04,368.40 C477.68,362.87 480.54,358.32 475.38,363.08 C473.07,365.20 470.36,366.72 468.69,366.82 C465.25,367.02 451.66,370.38 443.42,373.07 C431.87,376.83 386.03,382.10 367.31,381.82 L 357.12 381.67 L 370.41 376.00 C384.09,370.17 398.63,362.72 413.51,353.94 C422.05,348.89 425.01,346.41 418.51,349.74 C415.47,351.30 413.96,351.41 406.93,350.58 C400.79,349.85 398.08,349.93 395.67,350.91 C393.93,351.62 391.15,352.30 389.50,352.43 C387.85,352.56 382.00,353.00 376.50,353.41 C371.00,353.82 365.03,354.60 363.24,355.15 C361.45,355.71 355.08,357.15 349.08,358.36 C338.38,360.51 338.19,360.51 339.22,358.59 C340.38,356.42 341.03,355.61 345.68,350.50 C347.43,348.57 349.14,346.14 349.47,345.09 C349.81,344.04 351.13,342.49 352.41,341.65 C354.07,340.56 354.62,339.44 354.29,337.76 C353.88,335.60 354.66,335.09 363.67,331.59 C376.10,326.78 396.67,316.56 411.14,308.10 C408.90,309.44 406.67,310.73 404.50,311.96 C399.00,315.06 394.39,318.11 394.26,318.75 C393.99,320.09 400.04,321.99 404.59,321.99 C406.29,322.00 411.24,322.94 415.59,324.09 C419.94,325.23 427.75,327.25 432.93,328.57 C438.12,329.89 442.73,331.33 443.17,331.77 C444.38,332.98 439.75,337.43 431.47,343.02 C423.77,348.22 421.78,350.20 426.95,347.53 C428.79,346.57 432.60,346.00 437.09,346.00 C445.35,346.00 454.10,344.72 465.50,341.85 C473.97,339.71 495.46,329.14 502.32,323.73 C504.42,322.08 507.44,320.57 509.04,320.38 L 511.94 320.05 L 507.66 327.27 C500.54,339.33 491.58,350.91 481.38,361.53 C481.49,361.32 481.52,361.18 481.46,361.13 C480.80,360.47 473.00,368.11 473.00,369.41 ZM 496.89 141.00 C495.33,141.02 494.99,141.77 494.94,145.25 C494.86,151.33 492.29,156.89 485.99,164.57 C478.82,173.33 477.05,174.97 474.02,175.62 C472.63,175.92 471.02,176.31 470.44,176.48 C470.03,176.60 469.78,177.14 469.68,177.99 C469.47,176.02 468.72,175.37 466.08,174.30 C459.41,171.59 454.00,168.82 454.00,168.12 C454.00,167.74 457.82,167.44 462.50,167.46 C467.17,167.48 471.00,167.22 471.00,166.88 C471.00,166.53 472.29,165.99 473.86,165.68 C483.64,163.72 490.86,147.79 486.60,137.58 C484.59,132.77 478.39,126.27 474.47,124.85 C472.62,124.18 471.33,123.27 471.61,122.82 C471.89,122.37 471.45,122.00 470.64,122.00 C469.83,122.00 468.98,122.34 468.75,122.75 C468.52,123.16 468.46,122.94 468.63,122.25 C468.85,121.35 467.18,120.99 462.72,120.97 C457.03,120.94 456.67,120.81 458.44,119.47 C461.02,117.52 468.49,117.61 474.50,119.65 C480.01,121.53 491.31,132.20 493.65,137.75 C494.38,139.48 495.66,140.64 496.89,141.00 ZM 415.06 407.54 C422.12,404.65 432.79,399.08 441.43,393.96 C432.85,399.30 424.00,403.88 415.06,407.54 ZM 423.49 300.34 C433.76,293.47 444.16,285.64 446.67,282.67 C447.38,281.83 447.81,281.32 447.95,281.10 C447.86,281.28 447.55,281.68 447.06,282.31 C444.49,285.62 434.79,292.92 423.49,300.34 ZM 499.15 138.46 C498.66,136.96 497.64,134.63 496.39,132.18 C497.89,135.11 498.81,137.11 499.15,138.46 ZM 470.48 184.36 C470.61,184.86 470.75,185.38 470.91,185.90 L 471.95 189.30 L 470.89 185.90 C470.74,185.45 470.61,184.92 470.48,184.36 ZM 447.92 281.01 C447.75,281.10 447.28,281.48 446.50,282.10 C445.73,282.71 445.10,283.20 444.60,283.56 C445.10,283.20 445.72,282.71 446.48,282.10 C447.30,281.44 447.77,281.07 447.92,281.01 Z" fill="rgba(73,61,205,1)"/>
<path d="M 220.00 347.00 C220.00,346.45 218.88,346.00 217.50,346.00 C216.12,346.00 215.00,346.45 215.00,347.00 C215.00,347.15 215.08,347.29 215.23,347.42 C213.63,347.27 212.34,347.12 211.50,346.98 C211.27,346.94 211.03,346.90 210.79,346.87 C211.44,346.69 211.73,346.38 211.50,346.00 C211.16,345.45 210.01,345.00 208.94,345.00 C207.87,345.00 207.00,345.45 207.00,346.00 C207.00,346.08 207.02,346.15 207.06,346.22 C199.49,344.86 191.37,343.11 187.50,341.97 C185.30,341.32 182.49,340.73 181.25,340.65 C180.01,340.57 179.00,339.94 179.00,339.25 C179.00,338.14 176.95,337.59 173.25,337.73 C172.56,337.76 172.00,337.42 172.00,336.99 C172.00,336.56 170.20,335.32 168.00,334.23 C165.80,333.14 164.00,332.46 164.00,332.72 C164.00,332.88 164.15,333.22 164.44,333.71 C162.46,331.07 161.02,329.28 160.76,329.16 C160.33,328.98 160.24,328.42 160.55,327.91 C160.86,327.41 160.64,327.00 160.06,327.00 C159.48,327.00 159.00,326.33 159.00,325.50 C159.00,324.67 158.52,324.00 157.94,324.00 C157.36,324.00 157.16,323.55 157.50,323.00 C157.84,322.45 157.57,322.00 156.89,322.00 C156.22,322.00 155.93,321.74 156.24,321.42 C156.92,320.75 151.46,309.29 149.28,306.81 C148.47,305.89 148.08,304.68 148.41,304.14 C148.75,303.60 148.31,302.45 147.45,301.59 C146.58,300.73 145.81,299.12 145.73,298.01 C145.64,296.90 145.17,296.00 144.68,296.00 C144.19,296.00 144.05,295.33 144.36,294.50 C144.68,293.67 144.43,293.00 143.80,293.00 C143.18,293.00 142.96,292.70 143.32,292.34 C143.69,291.98 143.59,291.19 143.11,290.59 C141.89,289.08 139.25,278.16 137.71,269.40 C137.77,269.55 137.82,269.69 137.88,269.79 C138.38,270.73 139.79,275.23 141.01,279.80 C142.46,285.16 143.69,287.99 144.51,287.80 C145.20,287.63 147.28,285.52 149.14,283.09 C152.42,278.79 157.21,276.21 162.77,275.75 C166.48,275.44 168.50,272.16 172.02,260.75 C173.84,254.84 175.74,250.00 176.23,250.00 C176.72,250.00 176.84,249.55 176.50,249.00 C176.16,248.45 176.26,248.00 176.73,248.00 C177.19,248.00 177.65,247.03 177.74,245.84 C177.83,244.65 178.41,243.36 179.04,242.98 C179.66,242.59 180.10,242.10 180.00,241.89 C179.62,241.01 181.27,236.00 181.94,236.00 C182.34,236.00 182.67,235.42 182.67,234.72 C182.67,232.66 191.19,215.24 197.99,203.41 C213.48,176.45 231.59,152.50 251.82,132.04 C248.62,135.30 245.53,138.61 242.57,141.95 C225.91,160.78 211.62,180.54 199.59,201.39 C193.31,212.26 184.97,228.52 185.05,229.73 C185.07,230.15 186.47,227.80 188.15,224.50 C193.78,213.42 203.30,196.60 208.52,188.52 C221.27,168.76 249.06,134.30 251.18,135.61 C252.45,136.40 261.97,127.13 261.44,125.62 C261.23,125.00 262.28,123.63 263.78,122.57 L 266.50 120.64 L 264.69 122.71 C263.45,124.14 263.25,124.92 264.07,125.19 C264.72,125.41 262.94,127.67 260.11,130.21 C257.28,132.75 254.29,136.45 253.47,138.42 C252.65,140.39 251.08,142.56 249.99,143.24 C248.89,143.92 248.00,145.24 248.00,146.16 C248.00,147.09 246.88,149.18 245.50,150.82 C244.12,152.45 242.99,154.62 242.98,155.64 C242.97,156.66 241.63,159.93 239.99,162.89 C238.36,165.86 236.48,170.92 235.81,174.14 C235.14,177.36 234.24,180.00 233.80,180.00 C232.05,180.00 233.17,182.52 236.25,185.50 C238.04,187.23 240.78,190.54 242.34,192.85 C244.44,195.97 246.77,197.78 251.34,199.85 C255.55,201.76 259.04,204.36 262.39,208.07 C268.38,214.72 278.00,227.61 278.00,228.99 C278.00,229.54 279.54,231.70 281.43,233.79 C283.31,235.88 285.18,238.92 285.57,240.54 C286.64,244.97 288.94,249.09 292.14,252.29 C293.71,253.86 295.00,255.62 295.00,256.20 C295.00,256.84 295.58,256.76 296.50,256.00 C297.54,255.14 298.00,255.10 298.00,255.88 C298.00,257.57 300.70,257.22 301.39,255.44 C301.72,254.58 302.39,254.12 302.89,254.43 C304.23,255.26 317.00,242.73 317.00,240.59 C317.00,239.59 317.64,236.68 318.42,234.13 C325.12,212.18 325.76,210.81 331.19,206.67 C334.08,204.47 335.90,204.03 344.23,203.52 C354.20,202.91 355.89,203.30 360.39,207.25 C361.48,208.21 362.98,209.00 363.71,209.00 C364.44,209.00 365.56,210.12 366.18,211.50 C366.81,212.88 367.70,214.00 368.16,214.00 C368.62,214.00 368.90,214.34 368.79,214.75 C368.50,215.78 370.87,219.95 373.14,222.38 C374.16,223.48 375.00,224.92 375.00,225.59 C375.00,226.67 377.95,226.55 381.49,225.79 C379.95,226.17 378.48,226.45 377.25,226.58 C373.93,226.92 373.00,226.69 373.00,225.51 C373.00,224.68 372.63,224.00 372.19,224.00 C371.74,224.00 370.64,222.48 369.76,220.62 C367.61,216.12 362.37,210.24 358.90,208.45 C353.33,205.57 339.42,207.40 342.13,210.66 C343.00,211.70 342.82,212.00 341.33,212.00 C340.27,212.00 337.71,213.74 335.64,215.86 C332.56,219.01 331.73,220.74 331.12,225.24 C330.70,228.28 330.71,231.69 331.13,232.83 C331.27,233.20 331.28,233.61 331.08,234.14 C329.80,234.79 325.04,238.83 319.85,243.69 C314.16,249.03 311.72,251.06 314.44,248.22 C317.16,245.37 319.16,242.82 318.89,242.55 C318.62,242.28 314.82,245.71 310.45,250.17 C306.08,254.62 303.17,257.92 304.00,257.50 C307.06,255.91 294.31,268.22 289.34,271.65 C284.88,274.72 283.53,275.16 279.55,274.85 C275.65,274.54 275.20,274.67 276.66,275.74 C276.98,275.97 277.32,276.17 277.67,276.34 C273.03,274.87 264.31,269.16 260.50,264.97 L 257.50 261.67 L 261.13 264.36 C264.26,266.68 264.85,266.83 265.38,265.45 C267.67,259.49 264.10,242.65 259.36,237.01 C249.05,224.77 230.54,221.69 215.24,229.70 C206.71,234.16 198.55,242.01 196.25,247.97 C193.80,254.32 194.05,264.17 196.82,270.37 C198.98,275.21 199.00,275.23 201.46,273.62 C206.13,270.56 205.02,272.02 195.27,281.78 C185.60,291.45 177.96,298.13 175.68,298.90 C175.03,299.12 174.27,299.59 174.00,299.95 C173.18,301.02 163.61,304.85 159.38,305.80 C156.44,306.46 155.11,306.35 154.18,305.34 C152.54,303.59 148.57,303.51 149.68,305.25 C150.11,305.94 150.48,306.74 150.48,307.03 C150.49,307.33 151.31,309.35 152.29,311.53 C154.05,315.44 154.16,315.50 159.33,315.44 C162.21,315.41 165.12,315.04 165.79,314.63 C166.45,314.22 167.45,314.16 168.00,314.50 C168.55,314.84 169.00,314.59 169.00,313.95 C169.00,313.31 169.66,313.04 170.47,313.35 C171.28,313.66 172.60,313.26 173.40,312.46 C174.20,311.66 175.48,311.00 176.24,311.00 C177.00,311.00 178.59,310.10 179.77,309.00 C180.95,307.90 182.40,307.00 182.99,307.00 C183.58,307.00 184.32,306.33 184.64,305.50 C184.95,304.67 185.68,304.00 186.25,304.00 C187.24,304.00 189.86,301.73 197.86,293.96 C212.57,279.67 213.93,278.63 215.75,280.18 C217.27,281.47 220.21,282.96 226.00,285.38 C226.82,285.73 226.15,285.76 224.50,285.45 C222.85,285.14 219.74,283.98 217.60,282.88 C214.23,281.15 213.50,281.07 212.28,282.30 C211.05,283.52 211.39,284.14 214.78,286.83 C221.08,291.82 225.93,292.96 233.94,291.36 C236.66,290.82 243.67,285.34 242.79,284.45 C242.62,284.29 240.58,284.66 238.25,285.28 C235.01,286.14 233.73,286.13 232.81,285.21 C231.86,284.26 232.60,284.00 236.15,284.00 C241.08,284.00 246.70,280.74 250.84,275.48 L 252.99 272.75 L 258.73 277.09 C264.52,281.46 270.04,284.20 275.29,285.30 C271.60,285.04 269.54,284.36 266.25,282.67 C263.36,281.18 261.00,279.58 261.00,279.10 C261.00,278.62 259.99,277.97 258.75,277.66 C256.57,277.10 256.58,277.14 259.00,279.08 C262.10,281.55 270.67,286.08 273.91,286.95 C277.33,287.87 277.49,290.84 274.16,291.66 C271.21,292.39 268.49,293.99 262.43,298.54 C260.19,300.23 256.82,302.23 254.93,302.98 C251.32,304.42 239.74,311.97 239.17,313.25 C238.98,313.66 238.42,314.00 237.91,314.00 C237.40,314.00 234.63,315.17 231.75,316.61 C227.83,318.55 225.06,319.19 220.85,319.13 C214.77,319.03 213.45,320.06 210.23,327.41 C209.11,329.99 209.19,330.58 210.98,332.48 C212.09,333.66 213.00,335.28 213.00,336.07 C213.00,337.96 215.86,339.70 220.34,340.54 C222.32,340.91 223.83,341.72 223.72,342.35 C223.60,342.98 224.74,343.64 226.25,343.82 C227.76,343.99 229.00,344.52 229.00,345.00 C229.00,345.48 230.24,346.05 231.75,346.28 L 234.50 346.70 L 231.75 346.85 C230.24,346.93 229.00,347.45 229.00,348.00 C229.00,348.16 229.30,348.30 229.86,348.42 C226.08,348.23 222.33,348.00 219.14,347.75 C219.67,347.57 220.00,347.30 220.00,347.00 ZM 381.91 44.41 C388.75,46.13 394.47,47.97 396.00,49.08 C397.21,49.97 397.07,50.08 395.25,49.68 C393.53,49.30 393.00,49.64 393.00,51.09 C393.00,52.14 393.37,53.00 393.81,53.00 C394.98,53.00 397.97,59.60 398.98,64.41 C399.46,66.66 400.15,69.47 400.51,70.65 C401.50,73.82 395.45,80.08 389.26,82.31 C382.85,84.61 378.08,83.59 371.17,78.43 C366.76,75.14 366.00,74.09 366.00,71.26 C366.00,69.39 365.41,67.71 364.65,67.42 C361.78,66.32 343.57,70.13 335.15,73.59 C332.40,74.72 329.62,75.96 326.80,77.30 C340.34,70.42 342.61,68.80 341.60,67.16 C340.54,65.45 329.88,62.74 323.78,62.63 C319.55,62.55 318.64,62.30 320.28,61.69 C327.45,59.01 360.16,51.85 373.72,49.98 C378.79,49.29 382.70,48.33 382.41,47.86 C382.12,47.39 383.37,46.96 385.19,46.92 L 388.50 46.84 L 385.44 45.49 C384.81,45.22 383.55,44.84 381.91,44.41 ZM 180.50 332.27 C182.15,332.51 184.00,332.77 184.62,332.85 C185.75,333.00 190.90,329.41 192.23,327.53 C194.81,323.90 189.90,316.00 185.06,316.00 C183.54,316.00 180.43,317.35 178.15,319.01 C174.71,321.50 174.00,322.59 174.00,325.35 C174.00,329.26 176.25,331.65 180.50,332.27 ZM 328.00 252.33 C328.00,251.83 329.94,249.51 332.31,247.18 L 336.63 242.95 L 340.28 244.47 C345.72,246.75 351.95,246.40 357.36,243.52 L 362.01 241.05 L 360.40 243.52 C359.51,244.87 358.38,245.74 357.89,245.43 C357.40,245.13 357.00,245.48 357.00,246.20 C357.00,246.93 356.21,248.01 355.25,248.60 C352.19,250.50 342.97,252.26 338.91,251.72 C336.76,251.43 335.00,251.50 335.00,251.88 C335.00,252.26 334.10,252.57 333.00,252.57 C331.90,252.57 331.00,252.16 331.00,251.66 C331.00,251.16 330.33,251.32 329.50,252.00 C328.67,252.68 328.00,252.83 328.00,252.33 ZM 379.46 75.56 C380.81,76.90 382.81,78.00 383.91,78.00 C386.17,78.00 391.00,73.29 391.00,71.09 C391.00,66.61 382.87,64.18 379.81,67.75 C376.99,71.04 376.90,72.99 379.46,75.56 ZM 289.50 328.20 C288.40,327.96 287.17,327.26 286.77,326.63 C285.62,324.86 285.87,320.53 287.20,319.20 C289.06,317.34 293.49,317.78 295.53,320.03 C299.00,323.86 294.93,329.38 289.50,328.20 ZM 224.98 310.47 C226.16,311.90 226.51,311.92 227.78,310.65 C228.58,309.85 228.93,308.70 228.56,308.10 C227.74,306.77 226.96,306.74 225.06,307.94 C223.85,308.70 223.84,309.10 224.98,310.47 ZM 345.39 244.53 C345.35,244.52 345.30,244.52 345.26,244.51 C342.37,244.15 339.35,243.21 338.56,242.42 C337.30,241.16 334.88,243.22 319.81,258.29 C316.49,261.61 313.17,264.83 310.04,267.76 C312.90,265.01 316.07,261.87 319.59,258.29 L 336.68 240.95 L 339.59 242.47 C341.56,243.50 343.49,244.18 345.39,244.53 ZM 330.24 235.61 C328.59,237.93 324.58,241.98 316.20,250.08 C311.33,254.78 307.16,258.73 303.54,262.02 C312.18,254.00 326.17,240.23 330.24,235.61 ZM 286.32 275.25 C288.05,274.29 290.82,272.26 292.48,270.75 C294.14,269.24 295.97,268.01 296.55,268.00 C296.63,268.00 296.80,267.91 297.05,267.73 C292.44,271.60 288.96,274.03 286.08,275.38 C286.16,275.34 286.24,275.29 286.32,275.25 ZM 309.13 39.41 C329.34,37.17 350.09,38.03 371.20,42.04 C373.10,42.41 375.03,42.81 376.93,43.23 C375.17,42.84 373.29,42.46 371.44,42.12 C349.99,38.14 329.23,37.24 309.13,39.41 ZM 208.74 381.14 C194.77,370.13 182.06,357.34 171.58,343.47 C175.80,348.81 180.93,354.94 184.67,358.93 C192.24,367.01 200.31,374.45 208.74,381.14 ZM 251.00 134.62 C251.00,134.41 251.79,133.63 252.75,132.87 C254.34,131.63 254.37,131.66 253.13,133.25 C251.82,134.92 251.00,135.45 251.00,134.62 ZM 363.46 236.62 C363.16,236.97 362.83,237.35 362.46,237.78 C359.69,241.01 356.48,243.11 352.86,244.08 C355.89,243.13 358.84,241.22 361.70,238.35 C362.37,237.68 362.95,237.11 363.46,236.62 ZM 293.60 281.58 C289.64,284.22 288.09,285.08 285.19,285.34 C287.79,284.75 290.48,283.58 293.60,281.58 ZM 396.83 228.52 C391.83,231.15 385.79,233.11 380.31,234.04 C385.79,233.10 391.87,231.12 396.83,228.52 ZM 282.06 105.29 C277.77,108.60 273.53,112.05 269.40,115.61 C273.54,112.03 277.77,108.59 282.06,105.29 ZM 296.25 279.76 C295.91,280.01 295.60,280.23 295.31,280.43 C295.62,280.22 295.93,279.99 296.25,279.76 Z" fill="rgba(73,7,111,1)"/>
<path d="M 272.50 415.09 C249.62,408.35 227.05,396.08 206.69,379.50 C206.71,379.50 206.73,379.50 206.75,379.50 C207.35,379.50 208.17,379.84 208.58,380.25 C210.25,381.92 210.18,380.86 208.50,379.00 C206.48,376.76 204.61,376.33 205.25,378.25 C205.26,378.28 205.27,378.31 205.28,378.34 C204.12,377.38 202.95,376.39 201.80,375.40 C203.07,375.92 205.23,376.41 206.95,376.53 C208.90,376.66 213.04,377.74 216.14,378.92 C219.25,380.10 223.52,381.28 225.64,381.54 C229.42,382.01 242.52,384.82 244.50,385.59 C247.62,386.79 286.87,382.43 289.94,380.54 C290.47,380.21 294.25,379.09 298.34,378.04 C302.44,376.99 308.65,374.67 312.14,372.89 C315.64,371.10 321.20,368.67 324.50,367.50 C330.21,365.46 337.57,361.35 338.82,359.62 C338.85,360.39 340.88,360.00 349.08,358.36 C355.08,357.15 361.45,355.71 363.24,355.15 C365.03,354.60 371.00,353.82 376.50,353.41 C382.00,353.00 387.85,352.56 389.50,352.43 C391.15,352.30 393.93,351.62 395.67,350.91 C398.08,349.93 400.79,349.85 406.93,350.58 C413.96,351.41 415.47,351.30 418.51,349.74 C425.01,346.41 422.05,348.89 413.51,353.94 C398.63,362.72 384.09,370.17 370.41,376.00 L 357.12 381.67 L 367.31 381.82 C386.03,382.10 431.87,376.83 443.42,373.07 C451.66,370.38 465.25,367.02 468.69,366.82 C470.36,366.72 473.07,365.20 475.38,363.08 C480.54,358.32 477.68,362.87 472.04,368.40 C469.85,370.54 468.28,372.65 468.55,373.09 C468.99,373.79 462.10,379.64 451.95,387.17 C444.03,393.04 425.55,403.24 415.06,407.54 C409.73,409.72 409.56,409.73 407.06,407.92 C404.77,406.27 403.65,406.18 396.50,407.07 C392.10,407.62 387.15,408.49 385.50,409.00 C383.85,409.51 376.65,410.44 369.50,411.07 C362.35,411.70 352.45,412.62 347.50,413.13 C332.81,414.64 299.82,415.75 296.02,414.87 C290.27,413.53 283.02,413.84 281.36,415.50 C280.81,416.05 280.47,416.43 280.05,416.63 C279.09,417.08 277.70,416.62 272.50,415.09 ZM 286.39 102.03 C287.42,101.25 288.45,100.48 289.50,99.70 C304.01,88.93 306.11,86.86 296.16,93.13 C288.68,97.85 287.80,95.60 291.71,81.72 C293.64,74.87 292.73,72.89 288.53,74.81 C287.14,75.44 286.00,75.71 286.00,75.42 C286.00,73.66 312.56,63.50 327.58,59.50 C332.95,58.08 337.77,56.64 338.30,56.32 C338.82,55.99 337.85,55.13 336.13,54.41 C334.41,53.69 333.00,52.43 333.00,51.61 C333.00,50.79 332.06,48.52 330.91,46.57 C329.04,43.41 328.98,42.87 330.34,41.52 C331.17,40.68 332.45,39.99 333.18,39.97 C333.95,39.95 333.70,39.48 332.60,38.84 C332.13,38.56 331.19,38.37 329.90,38.26 C343.45,38.21 357.29,39.50 371.44,42.12 C377.45,43.23 383.75,44.75 385.44,45.49 L 388.50 46.84 L 385.19 46.92 C383.37,46.96 382.12,47.39 382.41,47.86 C382.70,48.33 378.79,49.29 373.72,49.98 C360.16,51.85 327.45,59.01 320.28,61.69 C318.64,62.30 319.55,62.55 323.78,62.63 C329.88,62.74 340.54,65.45 341.60,67.16 C342.66,68.88 340.11,70.58 324.72,78.35 C311.45,85.06 298.64,92.98 286.39,102.03 ZM 479.83 128.54 C476.01,125.33 470.46,122.60 468.99,123.51 C468.44,123.84 468.00,123.64 468.00,123.06 C468.00,121.50 460.90,121.77 455.94,123.52 C445.94,127.05 440.62,134.31 440.55,144.50 C440.53,148.83 441.14,151.69 442.76,154.79 C444.91,158.90 444.94,159.22 443.35,162.29 C442.34,164.24 440.74,166.99 438.84,170.07 C438.78,170.04 438.69,170.02 438.58,170.02 C438.07,170.01 436.94,170.65 436.06,171.45 C435.18,172.25 433.98,172.58 433.39,172.20 C431.67,171.06 429.49,157.16 429.60,147.96 C429.69,140.60 430.17,138.33 433.10,131.48 C436.17,124.34 437.16,123.05 443.00,118.65 C451.80,112.02 456.38,110.05 463.07,110.02 C472.10,109.99 477.71,112.23 485.66,119.05 C491.09,123.71 493.63,126.82 496.39,132.18 C498.37,136.04 499.75,139.60 499.44,140.10 C498.15,142.18 494.98,140.90 493.65,137.75 C491.31,132.20 480.01,121.53 474.50,119.65 C468.49,117.61 461.02,117.52 458.44,119.47 C456.67,120.81 457.03,120.94 462.72,120.97 C467.18,120.99 468.85,121.35 468.63,122.25 C468.46,122.94 468.52,123.16 468.75,122.75 C468.98,122.34 469.83,122.00 470.64,122.00 C471.45,122.00 471.89,122.37 471.61,122.82 C471.33,123.27 472.62,124.18 474.47,124.85 C476.03,125.42 477.95,126.79 479.83,128.54 ZM 446.92 176.53 C448.01,174.86 448.99,173.26 449.85,171.77 L 453.13 166.04 L 460.81 166.60 C463.78,166.82 466.65,167.10 468.34,167.32 C466.81,167.41 464.75,167.47 462.50,167.46 C457.82,167.44 454.00,167.74 454.00,168.12 C454.00,168.82 459.41,171.59 466.08,174.30 C469.17,175.56 469.68,176.23 469.75,179.13 C469.79,180.98 470.30,184.03 470.89,185.90 L 471.95 189.30 L 469.69 187.18 C467.27,184.90 456.30,181.00 452.33,181.00 C447.79,181.00 447.09,179.11 449.76,174.06 C452.13,169.57 451.80,169.67 446.92,176.53 ZM 180.50 332.27 C176.25,331.65 174.00,329.26 174.00,325.35 C174.00,322.59 174.71,321.50 178.15,319.01 C180.43,317.35 183.54,316.00 185.06,316.00 C189.90,316.00 194.81,323.90 192.23,327.53 C190.90,329.41 185.75,333.00 184.62,332.85 C184.00,332.77 182.15,332.51 180.50,332.27 ZM 373.38 226.40 C367.52,226.39 366.63,225.54 363.41,219.45 C362.00,216.77 359.90,214.79 356.91,213.31 C351.93,210.84 346.92,210.36 342.65,211.54 C342.63,211.33 342.45,211.05 342.13,210.66 C339.42,207.40 353.33,205.57 358.90,208.45 C362.37,210.24 367.61,216.12 369.76,220.62 C370.64,222.48 371.74,224.00 372.19,224.00 C372.63,224.00 373.00,224.68 373.00,225.51 C373.00,225.91 373.11,226.20 373.38,226.40 ZM 379.46 75.56 C376.90,72.99 376.99,71.04 379.81,67.75 C382.87,64.18 391.00,66.61 391.00,71.09 C391.00,73.29 386.17,78.00 383.91,78.00 C382.81,78.00 380.81,76.90 379.46,75.56 ZM 382.20 74.80 C383.67,76.27 384.57,76.30 387.07,74.96 C391.20,72.75 388.20,67.23 383.51,68.41 C380.76,69.10 380.04,72.64 382.20,74.80 ZM 181.71 325.38 C183.08,326.75 187.48,325.53 187.83,323.68 C188.37,320.82 185.16,317.84 182.87,319.07 C181.03,320.05 180.31,323.98 181.71,325.38 ZM 473.00 369.41 C473.00,368.11 480.80,360.47 481.46,361.13 C481.73,361.40 479.94,363.60 477.48,366.02 C475.02,368.44 473.00,369.96 473.00,369.41 ZM 412.21 217.49 C420.76,209.50 430.65,198.42 438.61,188.11 C430.77,198.53 421.36,209.42 415.88,214.26 C414.52,215.46 413.31,216.53 412.21,217.49 ZM 431.11 181.94 C429.34,184.53 427.62,186.96 426.10,188.99 C423.48,192.49 419.07,197.57 414.51,202.52 C420.46,195.76 426.77,188.01 431.11,181.94 ZM 190.29 364.72 C188.38,362.83 186.51,360.90 184.67,358.93 C180.83,354.84 175.53,348.49 171.25,343.05 C176.62,349.65 184.06,358.11 190.29,364.72 ZM 227.06 160.18 C238.66,145.22 250.54,132.43 264.09,120.30 C250.91,132.23 238.53,145.56 227.06,160.18 ZM 182.67 234.72 C182.67,232.83 186.37,224.98 191.43,215.49 C186.70,224.62 182.67,233.30 182.67,234.72 ZM 282.04 44.31 C259.81,50.02 237.97,59.91 217.51,73.52 C238.22,59.74 259.71,50.01 282.04,44.31 ZM 473.86 165.68 C478.14,164.82 482.57,160.42 485.30,155.14 C482.78,160.45 478.63,164.72 473.86,165.68 ZM 381.92 233.74 C387.11,232.63 392.71,230.62 397.80,228.01 C397.49,228.17 397.17,228.34 396.83,228.52 C392.36,230.87 386.96,232.71 381.92,233.74 ZM 438.28 170.97 C437.12,172.82 435.87,174.78 434.59,176.73 C434.87,176.27 435.12,175.84 435.35,175.43 C436.39,173.52 437.63,171.65 438.28,170.97 ZM 392.82 221.25 C391.35,222.64 388.08,224.02 384.35,225.00 C388.09,223.85 391.66,222.34 392.82,221.25 ZM 333.71 218.03 C332.39,220.06 331.49,222.48 331.12,225.24 C331.57,221.87 332.15,220.06 333.71,218.03 ZM 309.36 39.39 C303.16,40.11 296.58,41.12 290.73,42.30 C296.87,41.03 303.08,40.06 309.36,39.39 ZM 487.57 140.98 C487.06,138.54 486.07,136.24 484.51,133.91 C485.39,135.17 486.11,136.42 486.60,137.58 C487.05,138.66 487.37,139.80 487.57,140.98 ZM 349.43 345.21 C349.02,346.31 347.37,348.64 345.68,350.50 C344.27,352.04 343.23,353.20 342.43,354.11 C343.35,353.03 344.44,351.81 345.68,350.45 C347.37,348.62 349.02,346.31 349.43,345.21 ZM 341.20 212.01 C340.45,212.29 339.74,212.62 339.06,213.00 C339.93,212.43 340.69,212.07 341.20,212.01 ZM 340.13 357.03 C339.81,357.52 339.53,358.01 339.22,358.59 C339.16,358.71 339.10,358.82 339.05,358.92 C339.17,358.51 339.54,357.87 340.13,357.03 Z" fill="rgba(72,26,169,1)"/>
<path d="M 444.60 283.56 C441.61,285.73 443.20,283.64 448.65,278.30 C449.08,277.89 449.53,277.45 450.00,277.00 C455.50,271.69 456.62,270.34 453.16,273.15 C431.62,290.68 417.85,300.12 402.72,307.74 C396.55,310.85 391.27,313.66 391.00,313.99 C390.06,315.11 382.89,319.00 381.69,319.03 C381.04,319.05 378.25,320.17 375.50,321.52 C372.75,322.87 369.49,323.99 368.25,323.99 C367.01,324.00 366.00,324.45 366.00,325.00 C366.00,325.55 364.88,326.00 363.50,326.00 C362.12,326.00 361.00,326.45 361.00,327.00 C361.00,327.55 360.04,328.00 358.87,328.00 C357.08,328.00 346.19,331.47 341.00,333.70 C340.17,334.06 337.25,334.88 334.50,335.53 C331.75,336.19 323.42,338.17 316.00,339.94 C287.03,346.86 260.68,349.65 234.00,348.60 C224.93,348.25 214.80,347.52 211.50,346.98 C202.90,345.58 192.15,343.34 187.50,341.97 C185.30,341.32 182.49,340.73 181.25,340.65 C180.01,340.57 179.00,339.94 179.00,339.25 C179.00,338.14 176.95,337.59 173.25,337.73 C172.56,337.76 172.00,337.42 172.00,336.99 C172.00,336.56 170.20,335.32 168.00,334.23 C165.81,333.15 164.02,332.48 164.00,332.73 ZM 244.50 385.59 C242.52,384.82 229.42,382.01 225.64,381.54 C223.52,381.28 219.25,380.10 216.14,378.92 C213.04,377.74 208.90,376.66 206.95,376.53 C204.99,376.39 202.47,375.79 201.33,375.18 C198.12,373.46 185.62,360.04 175.96,348.69 C176.96,349.40 177.94,349.43 178.98,348.78 C180.15,348.05 182.09,348.69 186.53,351.26 C195.68,356.57 214.09,361.91 228.02,363.31 C252.80,365.81 275.06,363.51 290.17,356.91 C293.83,355.31 297.37,354.00 298.01,354.00 C298.66,354.00 300.39,353.38 301.85,352.62 C308.88,348.98 314.20,346.97 322.00,345.00 C340.78,340.27 363.11,332.18 382.39,323.29 C375.42,326.65 368.84,329.59 363.67,331.59 C354.66,335.09 353.88,335.60 354.29,337.76 C354.62,339.44 354.07,340.56 352.41,341.65 C351.13,342.49 349.81,344.04 349.47,345.09 C349.14,346.14 347.43,348.55 345.68,350.45 C341.41,355.09 339.00,358.24 339.00,359.19 C339.00,360.54 330.76,365.26 324.50,367.50 C321.20,368.67 315.64,371.10 312.14,372.89 C308.65,374.67 302.44,376.99 298.34,378.04 C294.25,379.09 290.47,380.21 289.94,380.54 C286.87,382.43 247.62,386.79 244.50,385.59 ZM 234.11 151.40 C245.17,137.79 255.79,126.45 262.62,121.34 C264.20,120.15 265.23,118.91 264.90,118.57 C264.57,118.24 260.16,121.86 255.09,126.63 C244.70,136.41 242.83,136.67 245.41,127.98 C246.27,125.08 248.29,120.64 249.89,118.10 C251.49,115.57 253.83,111.03 255.08,108.00 C256.33,104.97 258.18,101.31 259.18,99.85 C262.54,94.94 261.11,90.88 256.77,93.04 C255.12,93.87 255.32,93.49 257.50,91.65 C262.86,87.15 283.87,75.32 294.82,70.64 C299.50,68.64 300.05,67.27 295.47,69.01 C290.62,70.85 290.34,70.18 290.63,57.35 C290.78,50.83 290.92,45.15 290.95,44.72 C290.98,44.29 292.01,43.49 293.25,42.95 C296.96,41.33 288.21,42.69 279.79,44.90 C282.19,44.25 284.59,43.65 287.00,43.10 C303.63,39.30 329.27,36.90 332.60,38.84 C333.70,39.48 333.95,39.95 333.18,39.97 C332.45,39.99 331.17,40.68 330.34,41.52 C328.98,42.87 329.04,43.41 330.91,46.57 C332.06,48.52 333.00,50.79 333.00,51.61 C333.00,52.43 334.41,53.69 336.13,54.41 C337.85,55.13 338.82,55.99 338.30,56.32 C337.77,56.64 332.95,58.08 327.58,59.50 C312.56,63.50 286.00,73.66 286.00,75.42 C286.00,75.71 287.14,75.44 288.53,74.81 C292.73,72.89 293.64,74.87 291.71,81.72 C287.80,95.60 288.68,97.85 296.16,93.13 C306.11,86.86 304.01,88.93 289.50,99.70 C267.55,115.99 250.30,131.93 234.11,151.40 ZM 181.71 325.38 C180.31,323.98 181.03,320.05 182.87,319.07 C185.16,317.84 188.37,320.82 187.83,323.68 C187.48,325.53 183.08,326.75 181.71,325.38 ZM 208.58 380.25 C208.17,379.84 207.35,379.50 206.75,379.50 C206.15,379.50 205.48,378.94 205.25,378.25 C204.61,376.33 206.48,376.76 208.50,379.00 C210.18,380.86 210.25,381.92 208.58,380.25 ZM 170.72 342.39 C166.77,337.51 164.06,333.76 164.00,332.75 C164.07,333.36 167.52,338.20 170.72,342.39 ZM 427.18 297.84 C422.90,300.78 418.47,303.68 414.50,306.10 C412.54,307.29 410.42,308.53 408.20,309.79 C414.71,305.95 421.30,301.79 427.18,297.84 ZM 222.47 70.31 C220.83,71.35 219.18,72.42 217.51,73.53 C213.27,76.34 209.67,78.98 205.95,82.06 C209.67,78.97 213.28,76.33 217.51,73.52 C219.15,72.42 220.81,71.35 222.47,70.31 ZM 447.92 281.01 C448.01,280.96 448.02,280.99 447.95,281.10 C448.00,281.01 447.99,280.98 447.92,281.01 Z" fill="rgba(125,28,202,1)"/>
<path d="M 266.48 270.09 C260.44,265.91 255.00,260.97 254.98,258.67 C254.94,255.32 251.40,248.28 248.30,245.39 C235.91,233.88 213.83,238.20 207.49,253.37 C206.43,255.91 205.96,259.51 206.13,263.87 C206.29,268.22 205.91,271.19 205.01,272.50 C203.29,275.01 194.22,283.52 186.53,290.22 C189.15,287.80 192.10,284.95 195.27,281.78 C205.02,272.02 206.13,270.56 201.46,273.62 C199.00,275.23 198.98,275.21 196.82,270.37 C194.05,264.17 193.80,254.32 196.25,247.97 C198.55,242.01 206.71,234.16 215.24,229.70 C230.54,221.69 249.05,224.77 259.36,237.01 C264.10,242.65 267.67,259.49 265.38,265.45 C264.85,266.83 264.26,266.68 261.13,264.36 L 257.50 261.67 L 260.50 264.97 C261.95,266.56 264.11,268.38 266.48,270.09 ZM 141.01 279.80 C139.79,275.23 138.38,270.73 137.88,269.79 C137.38,268.85 136.83,265.47 136.65,262.29 C136.53,260.13 136.15,254.63 135.69,248.31 C136.15,253.60 136.58,257.78 136.81,259.00 L 137.47 262.50 L 137.81 259.11 C138.04,256.81 139.47,254.31 142.31,251.28 C145.80,247.56 146.92,246.93 149.23,247.40 C151.68,247.89 152.22,247.48 154.12,243.72 C155.29,241.40 156.39,239.34 156.57,239.13 C156.75,238.93 159.29,238.66 162.22,238.53 C165.15,238.40 169.74,237.32 172.43,236.14 C175.11,234.95 177.55,234.22 177.85,234.52 C178.15,234.82 178.35,236.73 178.29,238.76 C178.19,242.18 178.29,242.32 179.59,240.54 C179.89,240.14 180.16,239.67 180.39,239.22 C180.05,240.38 179.84,241.51 180.00,241.89 C180.10,242.10 179.66,242.59 179.04,242.98 C178.41,243.36 177.83,244.65 177.74,245.84 C177.65,247.03 177.19,248.00 176.73,248.00 C176.26,248.00 176.16,248.45 176.50,249.00 C176.84,249.55 176.72,250.00 176.23,250.00 C175.74,250.00 173.84,254.84 172.02,260.75 C168.50,272.16 166.48,275.44 162.77,275.75 C157.21,276.21 152.42,278.79 149.14,283.09 C147.28,285.52 145.20,287.63 144.51,287.80 C143.69,287.99 142.46,285.16 141.01,279.80 ZM 215.49 279.97 L 218.51 281.66 C222.63,283.96 224.42,284.33 231.07,284.26 C231.70,284.25 232.31,284.24 232.89,284.22 C232.28,284.40 232.31,284.71 232.81,285.21 C233.73,286.13 235.01,286.14 238.25,285.28 C240.58,284.66 242.62,284.29 242.79,284.45 C243.67,285.34 236.66,290.82 233.94,291.36 C225.93,292.96 221.08,291.82 214.78,286.83 C211.39,284.14 211.05,283.52 212.28,282.30 C213.50,281.07 214.23,281.15 217.60,282.88 C219.74,283.98 222.85,285.14 224.50,285.45 C226.15,285.76 226.82,285.73 226.00,285.38 C220.21,282.96 217.27,281.47 215.75,280.18 C215.66,280.10 215.57,280.03 215.49,279.97 ZM 166.31 312.36 C166.96,312.62 166.09,312.88 164.36,312.92 C162.43,312.97 160.99,312.42 160.64,311.50 C160.32,310.67 160.39,309.97 160.78,309.93 C161.18,309.88 162.56,309.65 163.86,309.42 C165.61,309.09 166.08,309.35 165.67,310.42 C165.36,311.22 165.65,312.09 166.31,312.36 ZM 209.60 282.83 L 213.71 278.98 L 215.09 279.75 C214.14,279.36 212.88,279.94 209.60,282.83 ZM 235.97 284.00 C241.94,283.35 245.43,281.37 249.54,276.82 L 251.39 274.77 L 250.84 275.48 C246.70,280.74 241.08,284.00 236.15,284.00 C236.09,284.00 236.03,284.00 235.97,284.00 ZM 290.17 273.01 C286.05,275.84 283.13,277.00 280.75,277.00 C280.03,277.00 279.14,276.81 278.11,276.46 C278.33,276.52 278.53,276.57 278.73,276.61 C281.87,277.20 285.17,276.37 290.17,273.01 ZM 182.67 234.72 C182.67,235.42 182.34,236.00 181.94,236.00 C181.70,236.00 181.34,236.64 180.99,237.50 C181.00,237.43 181.00,237.37 181.00,237.31 C181.00,236.59 181.38,236.00 181.83,236.00 C182.29,236.00 182.67,235.42 182.67,234.72 ZM 167.00 303.30 C164.34,304.36 161.44,305.34 159.38,305.80 C161.27,305.38 164.23,304.38 167.00,303.30 ZM 134.17 221.98 C134.22,217.68 134.60,213.75 135.34,207.62 C134.61,213.68 134.23,217.67 134.17,221.98 Z" fill="rgba(141,11,142,1)"/>
<path d="M 447.06 282.31 C444.99,284.98 438.48,290.08 430.11,295.84 C437.91,290.27 445.54,284.27 447.06,282.31 C448.38,280.61 448.35,280.59 446.48,282.10 C440.80,286.68 442.48,284.25 450.00,277.00 C455.50,271.69 456.62,270.34 453.16,273.15 C431.62,290.68 417.85,300.12 402.72,307.74 C396.55,310.85 391.27,313.66 391.00,313.99 C390.06,315.11 382.89,319.00 381.69,319.03 C381.04,319.05 378.25,320.17 375.50,321.52 C372.75,322.87 369.49,323.99 368.25,323.99 C367.01,324.00 366.00,324.45 366.00,325.00 C366.00,325.55 364.88,326.00 363.50,326.00 C362.12,326.00 361.00,326.45 361.00,327.00 C361.00,327.55 360.04,328.00 358.87,328.00 C357.08,328.00 346.19,331.47 341.00,333.70 C340.17,334.06 337.25,334.88 334.50,335.53 C331.75,336.19 323.42,338.17 316.00,339.94 C287.03,346.86 260.68,349.65 234.00,348.60 C224.93,348.25 214.80,347.52 211.50,346.98 C202.90,345.58 192.15,343.34 187.50,341.97 C185.30,341.32 182.49,340.73 181.25,340.65 C180.01,340.57 179.00,339.94 179.00,339.25 C179.00,338.14 176.95,337.59 173.25,337.73 C172.56,337.76 172.00,337.42 172.00,336.99 C172.00,336.56 170.20,335.32 168.00,334.23 C167.59,334.03 167.20,333.84 166.82,333.67 C165.20,332.93 164.01,332.52 164.00,332.74 ZM 136.81 259.00 C136.45,257.08 135.59,247.85 134.91,238.50 C133.82,223.58 133.87,219.80 135.34,207.62 C135.60,205.47 135.89,203.35 136.21,201.25 C135.41,207.49 135.03,213.69 135.07,219.82 C135.11,225.70 135.46,229.68 135.86,228.68 C136.25,227.67 136.90,226.89 137.29,226.93 C139.33,227.14 140.07,226.85 141.71,225.19 C145.77,221.09 152.09,216.87 153.70,217.18 C154.64,217.36 155.68,218.63 156.00,220.01 C157.07,224.53 159.18,222.62 163.05,213.64 C165.22,208.61 167.87,204.09 169.18,203.19 C175.03,199.16 187.42,183.15 192.94,172.50 C196.73,165.16 202.84,156.00 208.29,149.48 C213.14,143.68 218.51,128.00 215.65,128.00 C212.38,128.00 241.61,101.70 254.66,92.89 C261.55,88.25 264.40,85.65 260.07,87.96 C258.04,89.05 254.99,88.38 253.78,86.57 C253.38,85.98 253.33,83.16 253.66,80.30 C254.06,76.83 253.75,73.51 252.71,70.30 C251.86,67.66 250.87,63.47 250.52,61.00 L 249.88 56.50 L 254.49 54.63 C257.02,53.60 258.93,52.60 258.73,52.39 C258.31,51.98 250.93,54.99 243.98,58.22 C254.45,53.12 265.12,49.10 277.04,45.65 C286.13,43.03 297.37,41.15 293.25,42.95 C292.01,43.49 290.98,44.29 290.95,44.72 C290.92,45.15 290.78,50.83 290.63,57.35 C290.34,70.18 290.62,70.85 295.47,69.01 C300.05,67.27 299.50,68.64 294.82,70.64 C283.87,75.32 262.86,87.15 257.50,91.65 C255.32,93.49 255.12,93.87 256.77,93.04 C261.11,90.88 262.54,94.94 259.18,99.85 C258.18,101.31 256.33,104.97 255.08,108.00 C253.83,111.03 251.49,115.57 249.89,118.10 C248.29,120.64 246.27,125.08 245.41,127.98 C242.83,136.67 244.70,136.41 255.09,126.63 C260.16,121.86 264.57,118.24 264.90,118.57 C265.23,118.91 264.20,120.15 262.62,121.34 C250.77,130.21 227.53,157.83 210.30,183.50 C199.31,199.88 182.67,230.72 182.67,234.72 C182.67,235.42 182.29,236.00 181.83,236.00 C181.38,236.00 181.00,236.59 181.00,237.31 C181.00,238.03 180.37,239.48 179.59,240.54 C178.29,242.32 178.19,242.18 178.29,238.76 C178.35,236.73 178.15,234.82 177.85,234.52 C177.55,234.22 175.11,234.95 172.43,236.14 C169.74,237.32 165.15,238.40 162.22,238.53 C159.29,238.66 156.75,238.93 156.57,239.13 C156.39,239.34 155.29,241.40 154.12,243.72 C152.22,247.48 151.68,247.89 149.23,247.40 C146.92,246.93 145.80,247.56 142.31,251.28 C139.47,254.31 138.04,256.81 137.81,259.11 L 137.47 262.50 ZM 228.02 363.31 C214.09,361.91 195.68,356.57 186.53,351.26 C182.09,348.69 180.15,348.05 178.98,348.78 C177.91,349.45 176.90,349.40 175.88,348.63 C175.36,348.25 173.82,346.39 172.01,344.07 C172.31,344.18 172.73,344.29 173.16,344.36 C173.90,344.47 177.98,346.49 182.22,348.84 C186.92,351.44 192.21,353.49 195.72,354.08 C198.90,354.61 204.88,355.66 209.00,356.40 C218.03,358.04 249.56,358.37 263.00,356.98 C268.23,356.43 279.48,354.44 288.00,352.55 C296.52,350.66 305.30,348.81 307.50,348.44 C314.92,347.19 333.40,341.96 349.53,336.54 C350.61,336.18 351.68,335.81 352.76,335.43 C342.16,339.28 331.62,342.58 322.00,345.00 C314.20,346.97 308.88,348.98 301.85,352.62 C300.39,353.38 298.66,354.00 298.01,354.00 C297.37,354.00 293.83,355.31 290.17,356.91 C275.06,363.51 252.80,365.81 228.02,363.31 ZM 152.29 311.53 C151.31,309.35 150.49,307.33 150.48,307.03 C150.48,306.74 150.11,305.94 149.68,305.25 C148.57,303.51 152.54,303.59 154.18,305.34 C155.11,306.35 156.44,306.46 159.38,305.80 C162.62,305.08 167.92,303.07 171.13,301.51 C171.05,301.63 171.00,301.79 171.00,302.00 C171.00,302.61 170.55,302.84 170.00,302.50 C169.45,302.16 169.00,302.36 169.00,302.94 C169.00,304.79 170.45,304.13 178.57,298.54 C182.93,295.54 186.65,293.52 186.84,294.05 C187.02,294.58 187.55,294.78 188.01,294.49 C188.48,294.21 189.16,294.92 189.53,296.08 C190.01,297.61 189.43,298.99 187.41,301.09 C185.88,302.69 185.16,304.00 185.81,304.00 C186.47,304.00 187.00,303.55 187.00,302.99 C187.00,302.44 189.25,300.60 192.01,298.90 C192.79,298.42 193.59,297.89 194.34,297.36 C189.05,302.42 187.08,304.00 186.25,304.00 C185.68,304.00 184.95,304.67 184.64,305.50 C184.32,306.33 183.58,307.00 182.99,307.00 C182.40,307.00 180.95,307.90 179.77,309.00 C178.59,310.10 177.00,311.00 176.24,311.00 C175.48,311.00 174.20,311.66 173.40,312.46 C172.60,313.26 171.28,313.66 170.47,313.35 C169.66,313.04 169.00,313.31 169.00,313.95 C169.00,314.59 168.55,314.84 168.00,314.50 C167.45,314.16 166.45,314.22 165.79,314.63 C165.12,315.04 162.21,315.41 159.33,315.44 C154.16,315.50 154.05,315.44 152.29,311.53 ZM 363.50 219.62 C366.91,226.05 367.71,226.49 374.92,226.39 C381.41,226.29 390.14,223.79 392.82,221.25 C393.55,220.56 394.79,220.00 395.57,220.00 C396.36,220.00 397.00,219.55 397.00,219.00 C397.00,218.45 397.62,218.00 398.37,218.00 C399.91,218.00 412.75,204.87 421.17,195.05 C418.10,198.73 414.83,202.37 411.24,206.11 C404.43,213.21 402.37,215.93 403.49,216.36 C404.32,216.68 405.00,217.65 405.00,218.53 C405.00,219.47 405.51,219.86 406.25,219.49 C406.94,219.15 405.92,220.27 404.00,221.98 C399.30,226.17 389.71,230.76 383.11,231.99 C376.83,233.17 368.98,233.29 367.39,232.23 C366.78,231.83 365.95,229.25 365.55,226.50 C365.17,223.87 364.48,221.57 363.50,219.62 ZM 290.50 281.48 C282.98,285.86 271.52,285.37 272.19,280.70 C272.46,278.75 273.25,278.44 279.00,277.98 C285.40,277.47 288.01,276.51 293.05,272.79 C296.19,270.48 299.02,271.29 298.44,274.33 C297.99,276.69 296.62,277.92 290.50,281.48 ZM 166.31 312.36 C165.65,312.09 165.36,311.22 165.67,310.42 C166.08,309.35 165.61,309.09 163.86,309.42 C162.56,309.65 161.18,309.88 160.78,309.93 C160.39,309.97 160.32,310.67 160.64,311.50 C160.99,312.42 162.43,312.97 164.36,312.92 C166.09,312.88 166.96,312.62 166.31,312.36 ZM 171.52 301.32 C172.82,300.67 173.70,300.12 173.83,299.79 C174.02,299.36 174.69,299.00 175.33,299.00 C176.57,299.00 187.83,289.32 196.18,281.51 C185.24,292.15 175.02,300.89 174.97,299.37 C174.95,298.89 174.48,299.30 173.91,300.27 C173.34,301.25 172.45,301.78 171.94,301.46 C171.79,301.37 171.64,301.32 171.52,301.32 ZM 284.02 276.37 C289.85,274.30 298.86,266.84 316.20,250.08 C327.13,239.51 330.62,235.85 331.16,233.91 C330.65,235.79 327.43,239.20 317.64,248.69 C298.80,266.97 290.36,274.58 284.02,276.37 ZM 296.18 279.81 C290.60,283.87 286.44,285.48 282.15,285.80 C281.13,285.87 280.10,285.87 279.05,285.81 C282.59,285.98 285.92,285.30 289.00,283.75 C291.48,282.51 293.65,281.16 293.83,280.75 C294.02,280.34 294.76,280.00 295.48,280.00 C295.70,280.00 295.95,279.93 296.18,279.81 ZM 419.21 210.57 C415.10,214.84 411.08,218.68 407.47,221.72 C406.35,222.66 405.13,223.58 403.84,224.45 C403.94,224.32 404.00,224.16 404.00,224.00 C404.00,223.45 404.43,223.00 404.96,223.00 C406.25,223.00 409.48,220.19 419.21,210.57 ZM 191.45 95.50 C201.63,85.36 207.77,80.11 216.20,74.40 C207.61,80.46 199.92,87.07 191.45,95.50 ZM 146.70 161.38 C152.94,145.39 161.55,130.34 172.84,115.50 C161.81,130.00 153.02,145.52 146.70,161.38 ZM 403.18 224.89 C399.61,227.23 395.52,229.28 391.34,230.90 C392.63,230.31 394.22,229.61 395.75,228.94 C398.64,227.69 401.00,226.29 401.00,225.83 C401.00,225.37 401.67,225.00 402.50,225.00 C402.74,225.00 402.98,224.96 403.18,224.89 ZM 221.45 240.53 C226.00,238.88 231.04,238.41 235.86,239.28 C234.45,239.09 232.94,239.01 231.29,239.01 C227.70,239.01 224.40,239.54 221.45,240.53 ZM 299.96 276.87 C298.85,277.78 297.80,278.61 296.79,279.36 C297.04,279.12 297.24,278.82 297.36,278.50 C297.68,277.67 298.70,277.00 299.63,277.00 C299.70,277.00 299.81,276.96 299.96,276.87 ZM 264.28 268.51 C268.61,271.73 273.60,274.75 277.27,276.16 C276.06,275.77 274.81,275.21 273.45,274.53 C270.67,273.15 267.34,270.91 264.28,268.51 ZM 449.85 171.77 C446.33,177.92 440.64,185.78 434.19,193.68 C440.59,185.70 446.71,177.25 449.85,171.77 ZM 204.46 273.21 C204.69,272.94 204.87,272.70 205.01,272.50 C205.66,271.55 206.04,269.74 206.14,267.16 C206.19,269.80 206.08,270.92 205.58,271.83 C205.32,272.29 204.96,272.69 204.46,273.21 ZM 206.24 258.92 C206.44,256.74 206.86,254.87 207.49,253.37 C208.09,251.94 208.82,250.61 209.68,249.38 C207.88,252.12 206.70,255.34 206.24,258.92 ZM 429.01 184.97 C434.35,177.38 440.78,167.27 443.35,162.29 C443.40,162.20 443.44,162.11 443.49,162.03 C442.45,164.32 440.34,167.67 436.70,173.50 C434.17,177.54 431.64,181.33 429.01,184.97 ZM 379.89 234.13 C376.83,234.64 373.97,234.81 371.51,234.56 C373.66,234.71 376.81,234.52 379.89,234.13 ZM 401.64 313.56 C401.21,313.80 400.78,314.04 400.35,314.28 C397.95,315.60 395.45,316.92 392.85,318.24 C395.78,316.73 398.71,315.18 401.64,313.56 ZM 369.41 234.30 C367.50,234.09 366.50,234.20 365.17,235.16 C366.53,234.17 367.53,234.07 369.41,234.30 ZM 165.96 335.90 C164.82,334.27 164.05,333.06 164.00,332.76 C164.05,333.01 164.83,334.25 165.96,335.90 ZM 443.62 156.46 C443.38,155.98 443.10,155.43 442.76,154.79 C443.09,155.42 443.38,155.96 443.62,156.46 Z" fill="rgba(178,35,207,1)"/>
<path d="M 135.07 219.82 C135.01,210.71 135.89,201.43 137.66,192.12 C137.24,194.66 137.01,196.88 137.02,198.67 C137.03,202.16 137.30,203.08 138.00,202.00 C138.53,201.18 138.98,200.83 138.98,201.24 C139.02,203.02 171.87,169.85 181.81,158.00 C184.91,154.30 193.00,138.94 193.00,136.76 C193.00,134.90 198.93,122.86 201.01,120.50 C203.34,117.86 207.68,100.39 208.61,89.91 C209.53,79.54 205.95,81.29 186.12,100.92 C186.07,100.96 186.03,101.01 185.98,101.05 C187.79,99.19 189.64,97.31 191.45,95.50 C205.60,81.41 217.60,72.39 235.26,62.57 C242.47,58.57 258.11,51.78 258.73,52.39 C258.93,52.60 257.02,53.60 254.49,54.63 L 249.88 56.50 L 250.52 61.00 C250.87,63.47 251.86,67.66 252.71,70.30 C253.75,73.51 254.06,76.83 253.66,80.30 C253.33,83.16 253.38,85.98 253.78,86.57 C254.99,88.38 258.04,89.05 260.07,87.96 C264.40,85.65 261.55,88.25 254.66,92.89 C241.61,101.70 212.38,128.00 215.65,128.00 C218.51,128.00 213.14,143.68 208.29,149.48 C202.84,156.00 196.73,165.16 192.94,172.50 C187.42,183.15 175.03,199.16 169.18,203.19 C167.87,204.09 165.22,208.61 163.05,213.64 C159.18,222.62 157.07,224.53 156.00,220.01 C155.68,218.63 154.64,217.36 153.70,217.18 C152.09,216.87 145.77,221.09 141.71,225.19 C140.07,226.85 139.33,227.14 137.29,226.93 C136.90,226.89 136.25,227.67 135.86,228.68 C135.46,229.68 135.11,225.70 135.07,219.82 ZM 169.00 302.94 C169.00,302.36 169.45,302.16 170.00,302.50 C170.55,302.84 171.00,302.61 171.00,302.00 C171.00,301.39 171.42,301.14 171.94,301.46 C172.45,301.78 173.34,301.25 173.91,300.27 C174.48,299.30 174.95,298.89 174.97,299.37 C175.04,301.26 190.79,287.31 204.12,273.56 C204.80,272.86 205.26,272.39 205.58,271.83 C206.27,270.58 206.21,268.91 206.03,263.42 C205.96,261.13 206.15,258.95 206.58,256.92 C205.86,261.24 205.91,266.92 206.91,269.48 C207.67,271.41 207.71,271.41 208.84,269.29 C209.48,268.10 210.00,265.03 210.00,262.47 C210.00,256.99 212.05,252.18 215.80,248.87 C217.74,247.16 218.05,247.05 216.90,248.50 C214.58,251.42 212.00,258.58 212.00,262.08 C212.00,267.85 215.96,275.02 220.88,278.14 C226.09,281.45 231.91,281.90 237.77,279.45 C243.11,277.22 245.71,274.38 247.58,268.75 C249.53,262.90 249.07,257.73 246.07,251.73 L 243.95 247.50 L 246.48 250.50 C247.87,252.15 249.29,254.40 249.65,255.50 C250.28,257.47 252.79,259.91 254.25,259.97 C254.74,259.99 254.98,259.64 255.03,259.03 C255.90,262.08 266.45,271.04 273.45,274.53 C284.05,279.82 287.80,277.63 317.64,248.69 C329.64,237.06 331.77,234.55 331.13,232.82 C330.96,232.35 330.85,231.49 330.82,230.44 C330.92,231.47 331.18,232.21 331.61,232.78 C332.71,234.25 332.89,233.66 332.84,228.82 C332.80,224.11 333.27,222.52 335.56,219.51 C338.78,215.28 342.75,212.98 346.70,213.05 C349.08,213.09 348.76,213.38 344.61,215.00 C336.62,218.12 335.00,220.26 335.00,227.66 C335.00,233.16 335.36,234.37 337.82,237.12 C340.25,239.84 341.51,240.36 347.07,240.90 C353.41,241.52 353.56,241.48 357.30,237.98 C360.28,235.21 361.28,233.37 361.93,229.47 C362.39,226.74 362.82,225.06 362.88,225.75 C363.11,228.19 365.00,226.96 365.00,224.37 C365.00,224.08 364.98,223.80 364.95,223.50 C365.20,224.45 365.40,225.45 365.55,226.50 C365.95,229.25 366.78,231.83 367.39,232.23 C368.98,233.29 376.83,233.17 383.11,231.99 C389.71,230.76 399.30,226.17 404.00,221.98 C405.92,220.27 406.94,219.15 406.25,219.49 C405.51,219.86 405.00,219.47 405.00,218.53 C405.00,217.65 404.32,216.68 403.49,216.36 C402.37,215.93 404.43,213.21 411.24,206.11 C417.05,200.05 422.04,194.26 426.65,188.16 C422.03,194.28 416.98,200.17 411.01,206.48 C402.09,215.89 401.77,216.96 410.21,209.12 C414.20,205.41 419.37,203.88 418.27,206.74 C417.82,207.90 418.04,208.11 419.08,207.52 C419.86,207.07 418.59,208.71 416.25,211.14 C413.91,213.58 412.00,215.90 412.00,216.29 C412.00,216.84 412.20,217.08 412.64,216.97 C407.87,221.51 405.90,223.00 404.96,223.00 C404.43,223.00 404.00,223.45 404.00,224.00 C404.00,224.55 403.33,225.00 402.50,225.00 C401.67,225.00 401.00,225.37 401.00,225.83 C401.00,226.29 398.64,227.69 395.75,228.94 C392.86,230.20 389.77,231.60 388.87,232.05 C385.65,233.67 374.81,235.09 370.57,234.46 C366.43,233.84 366.05,234.01 361.72,238.34 C354.83,245.22 347.50,246.60 339.61,242.48 L 336.71 240.97 L 319.01 258.98 C309.28,268.89 300.56,277.00 299.63,277.00 C298.70,277.00 297.68,277.67 297.36,278.50 C297.05,279.33 296.20,280.00 295.48,280.00 C294.76,280.00 294.02,280.34 293.83,280.75 C293.65,281.16 291.48,282.51 289.00,283.75 C280.52,288.00 270.19,285.73 258.79,277.13 L 253.13 272.85 L 249.54 276.82 C244.42,282.49 240.26,284.16 231.07,284.26 C224.43,284.33 222.62,283.96 218.55,281.68 L 213.78 279.02 L 206.67 285.60 C202.76,289.22 198.99,293.00 198.29,294.00 C197.59,295.00 194.76,297.21 192.01,298.90 C189.25,300.60 187.00,302.44 187.00,302.99 C187.00,303.55 186.47,304.00 185.81,304.00 C185.16,304.00 185.88,302.69 187.41,301.09 C189.43,298.99 190.01,297.61 189.53,296.08 C189.16,294.92 188.48,294.21 188.01,294.49 C187.55,294.78 187.02,294.58 186.84,294.05 C186.65,293.52 182.93,295.54 178.57,298.54 C170.45,304.13 169.00,304.79 169.00,302.94 ZM 209.00 356.40 C204.88,355.66 198.90,354.61 195.72,354.08 C192.21,353.49 186.92,351.44 182.22,348.84 C177.98,346.49 173.90,344.47 173.16,344.36 C172.42,344.24 171.72,344.00 171.60,343.83 C171.48,343.65 169.72,341.19 167.69,338.37 C165.66,335.54 164.00,333.01 164.00,332.74 C164.00,332.47 165.80,333.14 168.00,334.23 C170.20,335.32 172.00,336.56 172.00,336.99 C172.00,337.42 172.56,337.76 173.25,337.73 C176.95,337.59 179.00,338.14 179.00,339.25 C179.00,339.94 180.01,340.57 181.25,340.65 C181.38,340.65 181.53,340.67 181.69,340.69 C181.68,340.71 181.67,340.73 181.65,340.75 C180.13,343.21 206.47,348.79 225.50,350.04 C265.02,352.63 313.19,345.59 354.97,331.12 C368.35,326.49 372.65,325.57 368.97,328.14 C364.58,331.20 375.17,327.01 388.00,320.62 C401.55,313.86 416.70,304.92 428.39,297.06 C425.26,299.27 422.17,301.35 419.50,303.02 C396.37,317.55 373.67,328.43 349.53,336.54 C333.40,341.96 314.92,347.19 307.50,348.44 C305.30,348.81 296.52,350.66 288.00,352.55 C279.48,354.44 268.23,356.43 263.00,356.98 C249.56,358.37 218.03,358.04 209.00,356.40 ZM 290.50 281.48 C296.62,277.92 297.99,276.69 298.44,274.33 C299.02,271.29 296.19,270.48 293.05,272.79 C288.01,276.51 285.40,277.47 279.00,277.98 C273.25,278.44 272.46,278.75 272.19,280.70 C271.52,285.37 282.98,285.86 290.50,281.48 ZM 382.20 74.80 C380.04,72.64 380.76,69.10 383.51,68.41 C388.20,67.23 391.20,72.75 387.07,74.96 C384.57,76.30 383.67,76.27 382.20,74.80 ZM 189.61 342.54 C192.78,343.36 197.33,344.35 202.07,345.28 C201.93,345.31 201.79,345.34 201.65,345.37 C200.36,345.70 198.98,345.65 198.59,345.26 C198.20,344.87 196.23,344.45 194.21,344.32 C192.18,344.19 190.37,343.61 190.18,343.04 C190.12,342.86 189.92,342.69 189.61,342.54 ZM 203.96 345.65 C206.53,346.13 209.10,346.59 211.50,346.98 C212.15,347.09 213.05,347.20 214.16,347.31 C209.57,347.02 206.31,346.83 205.75,346.84 C204.79,346.86 204.00,346.40 204.00,345.83 C204.00,345.76 203.99,345.70 203.96,345.65 ZM 182.79 340.85 C184.17,341.10 185.98,341.52 187.50,341.97 C187.65,342.01 187.80,342.06 187.96,342.10 C187.50,342.04 187.01,342.00 186.50,342.00 C184.72,342.00 183.08,341.49 182.79,340.85 ZM 140.12 181.29 C142.72,171.41 146.30,161.55 150.80,151.87 C146.49,161.28 142.65,172.04 140.12,181.29 ZM 235.49 239.23 C240.56,239.83 244.32,241.69 248.30,245.39 C244.66,242.02 240.17,240.00 235.49,239.23 ZM 167.33 123.10 C169.10,120.54 170.93,118.00 172.84,115.50 C173.88,114.12 175.96,111.75 178.58,108.89 C174.58,113.41 170.83,118.14 167.33,123.10 ZM 210.20 248.61 C212.86,244.92 216.68,242.14 221.40,240.55 C216.97,242.16 213.01,244.89 210.20,248.61 ZM 449.85 171.77 C447.07,176.62 441.96,183.80 436.38,190.92 C442.10,183.50 447.36,176.12 449.85,171.77 ZM 264.14 348.14 C280.88,346.97 297.93,344.26 316.00,339.94 C323.42,338.17 331.75,336.19 334.50,335.53 C331.75,336.19 323.42,338.17 316.00,339.95 C297.94,344.26 280.87,346.97 264.14,348.14 ZM 356.59 212.96 C358.77,213.91 360.57,215.32 361.99,217.19 C360.52,215.38 358.62,213.84 356.59,212.96 ZM 331.10 225.33 C331.11,225.30 331.11,225.27 331.12,225.24 C331.78,220.38 334.07,216.57 337.38,214.11 C334.08,216.59 331.79,220.42 331.10,225.33 ZM 447.95 281.10 C447.86,281.28 447.55,281.68 447.06,282.31 C446.81,282.63 446.39,283.07 445.84,283.59 C446.14,283.27 446.42,282.96 446.67,282.67 C447.38,281.83 447.81,281.32 447.95,281.10 ZM 249.00 246.11 C251.09,248.41 253.24,252.27 254.30,255.42 C253.23,252.36 251.14,248.46 249.00,246.11 ZM 444.60 283.56 C445.10,283.20 445.72,282.71 446.48,282.10 C447.30,281.44 447.77,281.07 447.92,281.01 C447.75,281.10 447.28,281.48 446.50,282.10 C445.73,282.71 445.10,283.20 444.60,283.56 Z" fill="rgba(216,68,237,1)"/>
<path d="M 137.02 198.67 C136.99,189.13 143.58,167.17 151.54,150.29 C160.49,131.31 171.96,114.93 186.12,100.92 C205.95,81.29 209.53,79.54 208.61,89.91 C207.68,100.39 203.34,117.86 201.01,120.50 C198.93,122.86 193.00,134.90 193.00,136.76 C193.00,138.94 184.91,154.30 181.81,158.00 C171.87,169.85 139.02,203.02 138.98,201.24 C138.98,200.83 138.53,201.18 138.00,202.00 C137.30,203.08 137.03,202.16 137.02,198.67 ZM 412.00 216.29 C412.00,215.90 413.91,213.58 416.25,211.14 C418.59,208.71 419.86,207.07 419.08,207.52 C418.04,208.11 417.82,207.90 418.27,206.74 C419.37,203.88 414.20,205.41 410.21,209.12 C401.77,216.96 402.09,215.89 411.01,206.48 C421.52,195.37 429.16,185.56 436.70,173.50 C442.82,163.70 444.62,160.89 444.26,158.39 C444.10,157.31 443.55,156.29 442.76,154.79 C441.14,151.69 440.53,148.83 440.55,144.50 C440.62,134.31 445.94,127.05 455.94,123.52 C460.90,121.77 468.00,121.50 468.00,123.06 C468.00,123.64 468.44,123.84 468.99,123.51 C470.76,122.41 478.42,126.57 481.88,130.51 C486.17,135.40 488.00,139.81 487.99,145.22 C487.97,153.81 480.72,164.31 473.86,165.68 C472.29,165.99 471.00,166.63 471.00,167.09 C471.00,167.56 470.44,167.76 469.75,167.55 C469.06,167.34 465.04,166.91 460.81,166.60 L 453.13 166.04 L 449.85 171.77 C445.14,180.01 430.48,199.14 421.52,208.75 C414.51,216.26 412.00,218.25 412.00,216.29 ZM 458.04 162.24 C460.92,163.38 464.13,163.85 467.09,163.57 C471.75,163.13 481.67,159.06 481.29,157.75 C481.18,157.36 481.74,155.47 482.54,153.55 C484.39,149.12 484.42,141.70 482.59,138.20 C479.36,132.01 471.34,126.98 464.78,127.02 C460.20,127.05 453.91,130.13 450.75,133.89 C443.44,142.57 447.41,158.03 458.04,162.24 ZM 347.07 240.90 C341.51,240.36 340.25,239.84 337.82,237.12 C335.36,234.37 335.00,233.16 335.00,227.66 C335.00,220.26 336.62,218.12 344.61,215.00 C348.76,213.38 349.08,213.09 346.70,213.05 C342.75,212.98 338.78,215.28 335.56,219.51 C333.27,222.52 332.80,224.11 332.84,228.82 C332.89,233.66 332.71,234.25 331.61,232.78 C330.68,231.54 330.54,229.48 331.10,225.39 C332.75,213.22 344.31,207.58 356.59,212.96 C361.13,214.94 365.00,220.19 365.00,224.37 C365.00,226.96 363.11,228.19 362.88,225.75 C362.82,225.06 362.39,226.74 361.93,229.47 C361.28,233.37 360.28,235.21 357.30,237.98 C353.56,241.48 353.41,241.52 347.07,240.90 ZM 220.88 278.14 C219.13,277.03 217.51,275.41 216.14,273.53 C216.92,274.52 217.33,274.49 216.75,272.76 C216.15,270.94 218.50,269.00 221.32,269.00 C222.67,269.00 228.15,268.10 233.50,267.00 C238.85,265.90 244.30,265.00 245.61,265.00 C247.80,265.00 248.00,264.59 248.00,260.23 C248.00,249.26 236.94,241.78 225.34,244.91 C219.88,246.38 216.14,249.49 213.90,254.42 C213.70,254.86 213.52,255.29 213.35,255.72 C214.31,252.91 215.64,250.08 216.90,248.50 C218.05,247.05 217.74,247.16 215.80,248.87 C212.05,252.18 210.00,256.99 210.00,262.47 C210.00,265.03 209.48,268.10 208.84,269.29 C207.71,271.41 207.67,271.41 206.91,269.48 C205.58,266.07 205.93,257.09 207.55,253.22 C213.83,238.20 235.97,233.94 248.30,245.39 C252.47,249.27 256.89,260.08 254.25,259.97 C252.79,259.91 250.28,257.47 249.65,255.50 C249.29,254.40 247.87,252.15 246.48,250.50 L 243.95 247.50 L 246.07 251.73 C249.07,257.73 249.53,262.90 247.58,268.75 C245.71,274.38 243.11,277.22 237.77,279.45 C231.91,281.90 226.09,281.45 220.88,278.14 ZM 225.50 350.04 C206.47,348.79 180.13,343.21 181.65,340.75 C182.19,339.89 182.47,339.90 182.77,340.80 C182.99,341.46 184.67,342.00 186.50,342.00 C188.33,342.00 189.99,342.47 190.18,343.04 C190.37,343.61 192.18,344.19 194.21,344.32 C196.23,344.45 198.20,344.87 198.59,345.26 C198.98,345.65 200.36,345.70 201.65,345.37 C202.99,345.04 204.00,345.23 204.00,345.83 C204.00,346.40 204.79,346.86 205.75,346.84 C206.71,346.82 215.71,347.39 225.74,348.10 C255.17,350.20 284.02,347.59 316.00,339.95 C323.42,338.17 331.75,336.19 334.50,335.53 C337.25,334.88 340.17,334.06 341.00,333.70 C346.19,331.47 357.08,328.00 358.87,328.00 C360.04,328.00 361.00,327.55 361.00,327.00 C361.00,326.45 362.12,326.00 363.50,326.00 C364.88,326.00 366.00,325.55 366.00,325.00 C366.00,324.45 367.01,324.00 368.25,323.99 C369.49,323.99 372.75,322.87 375.50,321.52 C378.25,320.17 381.04,319.05 381.69,319.03 C382.89,319.00 390.06,315.11 391.00,313.99 C391.27,313.66 396.55,310.85 402.72,307.74 C403.55,307.32 404.38,306.90 405.21,306.46 C405.03,306.62 404.90,306.81 404.83,307.01 C404.64,307.57 402.28,308.81 399.57,309.78 C396.87,310.75 394.44,312.17 394.19,312.93 C393.80,314.11 403.15,309.55 417.00,301.80 L 420.50 299.84 L 413.50 306.21 L 418.74 303.30 C408.99,309.38 398.05,315.60 388.00,320.62 C375.17,327.01 364.58,331.20 368.97,328.14 C372.65,325.57 368.35,326.49 354.97,331.12 C313.19,345.59 265.02,352.63 225.50,350.04 ZM 335.60 232.40 C336.11,233.74 336.49,233.77 338.11,232.64 C339.51,231.66 342.63,231.43 349.90,231.78 C359.22,232.23 359.86,232.13 360.93,230.12 C362.59,227.03 360.67,220.93 357.02,217.67 C354.60,215.52 353.03,215.00 348.96,215.00 C342.82,215.00 338.54,217.05 336.52,220.97 C334.97,223.96 334.52,229.58 335.60,232.40 ZM 377.33 168.38 C375.69,165.88 375.70,165.69 377.50,164.38 C381.97,161.11 387.25,163.96 385.17,168.53 C383.62,171.92 379.60,171.85 377.33,168.38 ZM 405.99 306.05 C411.33,303.23 416.58,300.12 422.16,296.44 C414.01,302.10 407.74,306.00 406.41,306.00 C406.27,306.00 406.13,306.02 405.99,306.05 ZM 448.00 281.01 C447.98,281.12 447.53,281.65 446.67,282.67 C443.74,286.14 436.34,291.79 426.94,298.03 C434.80,292.58 444.62,285.08 446.57,282.78 C447.49,281.69 447.97,281.13 448.00,281.01 ZM 213.97 269.75 C214.43,270.75 214.90,271.65 215.34,272.36 C213.30,269.16 212.00,265.39 212.00,262.08 C212.00,261.24 212.15,260.19 212.41,259.04 C211.76,262.56 212.28,266.01 213.97,269.75 Z" fill="rgba(233,124,248,1)"/>
<path d="M 394.19 312.93 C394.44,312.17 396.87,310.75 399.57,309.78 C402.28,308.81 404.64,307.57 404.83,307.01 C405.02,306.45 405.72,306.00 406.41,306.00 C409.28,306.00 435.03,287.91 453.16,273.15 C456.62,270.34 455.50,271.69 450.00,277.00 C442.45,284.27 440.84,286.62 446.50,282.10 C448.49,280.51 448.49,280.51 446.57,282.78 C443.83,286.01 425.56,299.51 419.00,303.16 L 413.50 306.21 L 417.00 303.02 L 420.50 299.84 L 417.00 301.80 C403.15,309.55 393.80,314.11 394.19,312.93 ZM 224.98 310.47 C223.84,309.10 223.85,308.70 225.06,307.94 C226.96,306.74 227.74,306.77 228.56,308.10 C228.93,308.70 228.58,309.85 227.78,310.65 C226.51,311.92 226.16,311.90 224.98,310.47 ZM 490.34 294.43 C489.50,292.26 491.62,290.22 493.13,291.73 C494.41,293.01 493.62,296.00 492.00,296.00 C491.42,296.00 490.67,295.29 490.34,294.43 ZM 213.97 269.75 C211.55,264.41 211.52,259.64 213.90,254.42 C216.14,249.49 219.88,246.38 225.34,244.91 C236.94,241.78 248.00,249.26 248.00,260.23 C248.00,264.59 247.80,265.00 245.61,265.00 C244.30,265.00 238.85,265.90 233.50,267.00 C228.15,268.10 222.67,269.00 221.32,269.00 C218.50,269.00 216.15,270.94 216.75,272.76 C217.77,275.81 215.71,273.58 213.97,269.75 ZM 395.36 262.50 C394.57,260.44 395.64,258.00 397.35,258.00 C398.12,258.00 399.32,258.67 400.00,259.50 C400.99,260.70 400.99,261.30 400.00,262.50 C399.32,263.33 398.12,264.00 397.35,264.00 C396.57,264.00 395.68,263.33 395.36,262.50 ZM 335.60 232.40 C334.52,229.58 334.97,223.96 336.52,220.97 C338.54,217.05 342.82,215.00 348.96,215.00 C353.03,215.00 354.60,215.52 357.02,217.67 C360.67,220.93 362.59,227.03 360.93,230.12 C359.86,232.13 359.22,232.23 349.90,231.78 C342.63,231.43 339.51,231.66 338.11,232.64 C336.49,233.77 336.11,233.74 335.60,232.40 ZM 481.99 185.49 C480.24,183.38 481.22,180.44 483.54,180.83 C486.25,181.29 487.17,182.38 486.46,184.26 C485.59,186.51 483.35,187.13 481.99,185.49 ZM 458.04 162.24 C447.41,158.03 443.44,142.57 450.75,133.89 C453.91,130.13 460.20,127.05 464.78,127.02 C471.34,126.98 479.36,132.01 482.59,138.20 C484.42,141.70 484.39,149.12 482.54,153.55 C481.74,155.47 481.18,157.36 481.29,157.75 C481.67,159.06 471.75,163.13 467.09,163.57 C464.13,163.85 460.92,163.38 458.04,162.24 Z" fill="rgba(231,216,250,1)"/>
</g>
</svg>